<svg width="278" height="241" viewBox="0 0 278 241" fill="none" xmlns="http://www.w3.org/2000/svg">
<path d="M166.896 29.441L152.786 4.4655C152.4 3.76862 151.761 3.26956 151.015 3.09871L138.268 0.167288C136.892 -0.147435 135.52 0.702317 135.1 2.12756L131.23 15.3504C131.005 16.1237 131.094 16.96 131.475 17.6569L145.586 42.6324C146.34 44.0082 148.004 44.4713 149.3 43.671L165.918 33.384C167.214 32.5837 167.65 30.8168 166.896 29.441ZM141.292 9.38417C140.03 10.0496 138.501 9.50107 137.874 8.16574C137.248 6.82592 137.764 5.20285 139.022 4.53744C140.284 3.87202 141.813 4.42054 142.44 5.75587C143.066 7.09119 142.55 8.71876 141.292 9.38417Z" fill="#685FD2"/>
<path d="M141.292 9.38417C141.292 9.38417 141.487 9.26278 141.787 8.97953C142.08 8.70078 142.457 8.19722 142.584 7.45537C142.719 6.73151 142.529 5.76037 141.847 5.08146C141.195 4.39807 140.034 4.12381 139.073 4.64085C138.103 5.13991 137.612 6.2864 137.726 7.25305C137.823 8.23768 138.438 8.98852 139.06 9.30774C139.691 9.64944 140.301 9.63595 140.686 9.55502C141.076 9.47409 141.279 9.3572 141.288 9.37968C141.288 9.38867 141.241 9.41565 141.148 9.4696C141.055 9.52355 140.902 9.5865 140.703 9.64045C140.314 9.74835 139.67 9.79331 138.988 9.45161C138.315 9.1279 137.637 8.3366 137.519 7.27104C137.455 6.74949 137.54 6.174 137.79 5.66145C138.031 5.14441 138.45 4.7038 138.967 4.42504C139.484 4.15528 140.072 4.06985 140.606 4.17776C141.144 4.27218 141.622 4.55093 141.978 4.91961C142.706 5.66145 142.893 6.71353 142.728 7.47785C142.575 8.26016 142.152 8.77721 141.834 9.04248C141.673 9.17736 141.533 9.26728 141.436 9.31224C141.339 9.36169 141.288 9.38417 141.283 9.37518L141.292 9.38417Z" fill="#E2B237"/>
<path d="M166.896 29.441C166.896 29.441 166.951 29.5309 167.045 29.7243C167.125 29.9176 167.235 30.2188 167.278 30.637C167.32 31.0506 167.278 31.5856 167.036 32.1476C166.913 32.4264 166.74 32.7051 166.503 32.9569C166.274 33.2132 165.965 33.42 165.647 33.6088C163.081 35.2049 159.384 37.5114 154.81 40.3619C153.666 41.0723 152.468 41.8186 151.219 42.5964C150.592 42.9831 149.957 43.3787 149.304 43.7834C148.631 44.1925 147.771 44.2824 147.009 43.9992C146.628 43.8643 146.272 43.6305 145.98 43.3248C145.679 43.0235 145.476 42.6324 145.273 42.2727C144.858 41.5398 144.434 40.7935 144.007 40.0382C143.151 38.5275 142.27 36.9719 141.368 35.3758C139.564 32.1836 137.667 28.834 135.702 25.3631C134.719 23.6276 133.72 21.8607 132.708 20.0668C132.454 19.6172 132.199 19.1676 131.945 18.7179L131.56 18.039C131.433 17.8142 131.293 17.5849 131.2 17.3242C131.009 16.8116 130.95 16.2406 131.043 15.6921C131.086 15.4134 131.179 15.1616 131.251 14.9053L131.475 14.1365C132.678 10.0316 133.851 6.02563 134.986 2.15904C135.257 1.14743 136.062 0.329147 137.015 0.0863609C137.485 -0.0395282 137.993 -0.0215439 138.446 0.0998492C138.899 0.203258 139.348 0.306667 139.797 0.410076C141.593 0.823712 143.346 1.22836 145.061 1.62401C146.776 2.01966 148.445 2.40632 150.067 2.77949C150.473 2.8784 150.871 2.95034 151.282 3.07173C151.689 3.20661 152.057 3.43591 152.362 3.74164C152.675 4.03838 152.883 4.43403 153.078 4.78922C153.281 5.1489 153.484 5.50859 153.683 5.86377C155.284 8.70527 156.775 11.3534 158.134 13.7678C160.849 18.6011 163.043 22.5126 164.567 25.2237C165.321 26.5725 165.905 27.6246 166.308 28.344C166.503 28.6992 166.651 28.9689 166.757 29.1578C166.858 29.3421 166.901 29.441 166.901 29.441C166.901 29.441 166.841 29.3511 166.735 29.1712C166.625 28.9824 166.473 28.7171 166.27 28.3665C165.859 27.6516 165.262 26.6085 164.495 25.2687C162.958 22.5666 160.743 18.6685 158.003 13.8487C156.635 11.4344 155.136 8.79519 153.527 5.95819C153.328 5.603 153.124 5.24781 152.917 4.88364C152.714 4.51946 152.523 4.15977 152.231 3.88102C151.947 3.59777 151.6 3.38196 151.223 3.26057C150.846 3.14816 150.427 3.07173 150.024 2.97282C148.402 2.59965 146.73 2.21748 145.014 1.82633C143.299 1.43517 141.542 1.03053 139.75 0.616894C139.301 0.513485 138.853 0.410076 138.399 0.306667C137.955 0.18977 137.506 0.176282 137.065 0.293179C136.189 0.522477 135.448 1.26882 135.194 2.21299C134.063 6.08408 132.89 10.0901 131.687 14.1949L131.463 14.9638C131.391 15.2245 131.302 15.4718 131.264 15.7191C131.179 16.2226 131.234 16.7487 131.408 17.2208C131.492 17.4591 131.624 17.6749 131.755 17.9042L132.14 18.5831C132.394 19.0327 132.648 19.4868 132.902 19.9319C133.915 21.7258 134.914 23.4927 135.897 25.2327C137.857 28.7081 139.75 32.0577 141.55 35.2544C142.452 36.8505 143.329 38.4106 144.184 39.9213C144.612 40.6766 145.031 41.423 145.446 42.1558C145.654 42.5245 145.844 42.8887 146.124 43.1674C146.399 43.4507 146.73 43.671 147.085 43.7969C147.797 44.0621 148.597 43.9812 149.232 43.599C149.885 43.1989 150.52 42.8077 151.147 42.4211C152.4 41.6478 153.599 40.9104 154.746 40.2C159.333 37.381 163.043 35.097 165.617 33.5144C165.944 33.3211 166.236 33.1323 166.464 32.8805C166.693 32.6377 166.867 32.3679 166.99 32.0982C167.231 31.5541 167.278 31.0326 167.248 30.6235C167.172 29.7962 166.884 29.432 166.913 29.4275L166.896 29.441Z" fill="#E2B237"/>
<path d="M139.242 25.3046C137.862 22.8678 138.471 20.4804 140.424 19.235C142.397 17.9761 144.667 18.5246 146.048 20.9615C147.437 23.4163 146.819 25.7857 144.845 27.0446C142.893 28.29 140.631 27.7595 139.242 25.3046ZM143.757 22.4227C142.948 20.9929 142.156 20.7322 141.508 21.1458C140.902 21.5325 140.707 22.4227 141.516 23.8524C142.325 25.2822 143.155 25.5205 143.765 25.1293C144.409 24.7202 144.566 23.8524 143.757 22.4227ZM148.377 14.4062L151.109 12.6663L150.024 32.5388L147.293 34.2832L148.377 14.4107V14.4062ZM152.371 25.9701C150.994 23.5332 151.583 21.1593 153.552 19.9004C155.526 18.6415 157.796 19.19 159.176 21.6269C160.565 24.0817 159.947 26.4511 157.973 27.71C156 28.9689 153.76 28.4249 152.371 25.9701ZM156.881 23.0881C156.072 21.6584 155.259 21.4111 154.632 21.8112C154.005 22.2114 153.832 23.0881 154.64 24.5178C155.449 25.9476 156.262 26.1949 156.889 25.7947C157.516 25.3946 157.69 24.5178 156.881 23.0881Z" fill="white"/>
<path d="M76.9495 137.436L65.4685 60.5179C65.1763 58.3778 64.0498 56.467 62.3643 55.253L33.5158 34.4499C30.4031 32.2063 26.1893 32.8583 23.8093 35.9516L1.75367 64.6318C0.466249 66.3088 -0.101235 68.4804 0.190977 70.6205L11.6719 147.539C12.2521 151.752 15.9365 154.669 19.9047 154.054L70.8088 146.176C74.7769 145.561 77.5254 141.649 76.9452 137.436H76.9495ZM32.3385 60.5134C28.5863 60.8236 25.3042 57.8428 25.012 53.8593C24.7198 49.8758 27.5276 46.3914 31.2798 46.0811C35.0319 45.7709 38.314 48.7518 38.6062 52.7353C38.8984 56.7188 36.0907 60.2032 32.3385 60.5134Z" fill="#685FD2"/>
<path d="M32.3385 60.5134C32.3343 60.4729 32.9441 60.4729 33.969 60.1088C34.4814 59.9334 35.0785 59.6187 35.7011 59.1556C36.3194 58.688 36.9546 58.0316 37.467 57.1729C37.9752 56.3186 38.386 55.2575 38.4919 54.0661C38.5935 52.8836 38.4623 51.5708 37.9202 50.3569C37.6661 49.7454 37.3103 49.1609 36.8741 48.6349C36.6666 48.3606 36.4125 48.1268 36.1711 47.884C35.9043 47.6682 35.6418 47.4344 35.3453 47.2546C34.1849 46.4723 32.7408 46.0946 31.2925 46.2025C29.8441 46.3374 28.472 46.9444 27.4387 47.911C27.1719 48.1403 26.9474 48.4101 26.7145 48.6708C26.507 48.9541 26.2952 49.2239 26.1258 49.5296C25.7743 50.1186 25.5033 50.7525 25.3466 51.4044C24.9909 52.6948 25.0502 54.0121 25.3212 55.1631C25.6007 56.3231 26.1597 57.2987 26.7865 58.0631C27.4217 58.8274 28.1417 59.3669 28.8235 59.7311C29.5053 60.0908 30.1406 60.3021 30.6742 60.3875C31.7371 60.5808 32.3427 60.4819 32.3427 60.5224C32.3427 60.5224 32.3046 60.5314 32.2326 60.5359C32.1479 60.5404 32.0378 60.5494 31.9065 60.5584C31.7626 60.5719 31.5847 60.5764 31.3772 60.5584C31.1697 60.5449 30.924 60.5359 30.6572 60.4819C30.1152 60.4055 29.4672 60.2032 28.7684 59.8525C28.0697 59.4973 27.3286 58.9533 26.6721 58.18C26.02 57.4066 25.4398 56.4085 25.1433 55.2216C24.8554 54.0391 24.7876 52.6858 25.1476 51.355C25.3085 50.6851 25.5838 50.0331 25.948 49.4217C26.1174 49.107 26.3376 48.8282 26.5493 48.536C26.7865 48.2662 27.0194 47.9874 27.2947 47.7492C28.3577 46.751 29.7764 46.1216 31.2713 45.9822C32.7705 45.8743 34.2612 46.2655 35.4554 47.0747C35.7604 47.2636 36.0314 47.5019 36.3067 47.7267C36.5565 47.9785 36.8191 48.2212 37.0308 48.5045C37.4797 49.0485 37.8439 49.651 38.1023 50.2849C38.6528 51.5393 38.7841 52.8926 38.6698 54.1066C38.5512 55.3295 38.1235 56.413 37.5941 57.2808C37.0605 58.153 36.4041 58.8094 35.7646 59.277C35.1251 59.7401 34.511 60.0458 33.9901 60.2122C33.736 60.3111 33.4947 60.3605 33.2914 60.4055C33.0881 60.4595 32.9102 60.4819 32.7705 60.4954C32.6392 60.5089 32.5333 60.5179 32.4486 60.5269C32.3766 60.5314 32.3385 60.5359 32.3385 60.5269V60.5134Z" fill="#E2B237"/>
<path d="M76.9495 137.436C76.9495 137.436 76.9876 137.724 77.0299 138.29C77.0384 138.857 77.0299 139.716 76.7292 140.786C76.6911 140.921 76.6488 141.055 76.6107 141.195C76.5556 141.33 76.5048 141.469 76.4455 141.613C76.3439 141.905 76.1829 142.184 76.0305 142.49C75.6917 143.074 75.2682 143.681 74.7049 144.239C74.1375 144.787 73.4472 145.291 72.6383 145.659C72.435 145.749 72.2317 145.848 72.0073 145.911C71.7871 145.979 71.5711 146.069 71.3382 146.105C70.8765 146.212 70.4022 146.28 69.911 146.356C62.0594 147.579 50.7055 149.351 36.6708 151.536C33.1643 152.08 29.4884 152.651 25.6557 153.249C23.7415 153.545 21.785 153.847 19.7946 154.152C17.7745 154.445 15.6104 153.77 14.0181 152.291C13.2177 151.563 12.5697 150.628 12.1378 149.584C11.6846 148.541 11.5533 147.381 11.384 146.262C11.0452 144.005 10.7021 141.707 10.3549 139.378C9.65609 134.721 8.94038 129.928 8.20774 125.014C6.73821 115.181 5.19669 104.862 3.59588 94.1618C2.79547 88.8115 1.98236 83.3668 1.15654 77.8456C0.949032 76.4654 0.741519 75.0761 0.534006 73.6868C0.428132 72.9899 0.326493 72.293 0.220619 71.5962C0.11898 70.9038 -0.00806782 70.1934 0.000402082 69.4695C0.00887198 68.0308 0.390018 66.5876 1.11843 65.3601C1.47417 64.7352 1.94001 64.2092 2.35503 63.6472C2.78276 63.0941 3.21049 62.5366 3.63822 61.9791C10.4861 53.077 17.1689 44.3906 23.623 35.9965C24.0337 35.475 24.4827 34.9669 25.0078 34.5668C25.2577 34.3465 25.5414 34.1846 25.8124 34.0003C26.1004 33.8519 26.3799 33.6766 26.6848 33.5642C27.8748 33.0471 29.1835 32.8942 30.4412 33.0696C31.0722 33.1685 31.6863 33.3483 32.2707 33.6001C32.8509 33.8654 33.4015 34.2116 33.9054 34.5892C34.9303 35.3311 35.9509 36.0639 36.9673 36.7968C41.0286 39.7282 45.001 42.5922 48.8802 45.3932C52.7594 48.1898 56.5412 50.9189 60.2129 53.5715C60.6703 53.9042 61.1277 54.2324 61.5851 54.5607C62.0382 54.8934 62.5041 55.2036 62.936 55.5768C63.7957 56.3186 64.4818 57.2718 64.9434 58.3193C65.1721 58.8454 65.3457 59.3939 65.4643 59.9559C65.5744 60.5224 65.6421 61.0799 65.7268 61.6329C65.892 62.7434 66.0572 63.845 66.2181 64.942C67.5182 73.6868 68.7294 81.8336 69.8347 89.2701C72.0412 104.143 73.8241 116.179 75.0564 124.501C75.6663 128.66 76.1448 131.888 76.4667 134.082C76.6234 135.175 76.7462 136.011 76.8267 136.573C76.9071 137.135 76.941 137.423 76.941 137.423C76.941 137.423 76.8902 137.135 76.8012 136.577C76.7165 136.015 76.5853 135.179 76.4201 134.087C76.0898 131.897 75.5985 128.669 74.9717 124.515C73.7224 116.197 71.9141 104.165 69.6781 89.2971C68.5643 81.8606 67.3446 73.7183 66.0318 64.9735C65.8666 63.8809 65.7014 62.7794 65.5363 61.6644C65.4473 61.1114 65.3796 60.5449 65.2737 60.0009C65.1594 59.4523 64.99 58.9173 64.7655 58.4048C64.3166 57.3797 63.6475 56.458 62.809 55.7341C62.3939 55.3744 61.9239 55.0642 61.4707 54.7315C61.0133 54.4033 60.556 54.0751 60.0986 53.7424C56.4227 51.0942 52.6408 48.3696 48.7616 45.5731C44.8824 42.7765 40.9058 39.9126 36.8445 36.9856C35.8281 36.2528 34.8075 35.5199 33.7826 34.7781C33.2744 34.3959 32.7493 34.0722 32.1818 33.8114C31.6143 33.5642 31.0172 33.3888 30.4074 33.2944C29.1877 33.1235 27.913 33.2719 26.7568 33.7755C26.4604 33.8834 26.1936 34.0542 25.9098 34.1981C25.6473 34.3779 25.372 34.5353 25.1306 34.7466C24.6182 35.1333 24.1904 35.6233 23.7839 36.1359C17.3298 44.53 10.6471 53.2208 3.80339 62.123C3.37566 62.6805 2.94793 63.2335 2.5202 63.791C2.10094 64.353 1.64356 64.8791 1.30053 65.477C0.593294 66.6685 0.224855 68.0668 0.216385 69.465C0.207915 70.1619 0.330728 70.8543 0.432366 71.5557C0.53824 72.2526 0.63988 72.9495 0.745754 73.6463C0.953266 75.0356 1.16078 76.4249 1.36829 77.8052C2.19411 83.3308 3.00298 88.7755 3.80339 94.1258C5.39997 104.826 6.93725 115.145 8.40254 124.978C9.13519 129.892 9.8509 134.689 10.5412 139.347C10.8885 141.676 11.2315 143.969 11.5661 146.23C11.7355 147.363 11.8625 148.487 12.3029 149.504C12.7222 150.52 13.3532 151.432 14.1324 152.143C15.6824 153.586 17.7914 154.247 19.7649 153.964C21.7553 153.658 23.7077 153.361 25.6261 153.069C29.4587 152.48 33.1347 151.913 36.6412 151.369C50.6758 149.211 62.0382 147.467 69.8898 146.262C70.3811 146.185 70.8596 146.122 71.3127 146.015C71.5457 145.979 71.7574 145.889 71.9776 145.826C72.1979 145.767 72.4011 145.668 72.6002 145.578C73.4048 145.214 74.0909 144.72 74.6541 144.18C75.2131 143.632 75.6366 143.029 75.9754 142.454C76.1279 142.152 76.2888 141.874 76.3905 141.586C76.4455 141.442 76.5006 141.307 76.5556 141.172C76.598 141.033 76.6361 140.898 76.6784 140.768C76.9833 139.707 77.0045 138.852 77.0003 138.286C76.9918 138.003 76.9622 137.791 76.9537 137.647C76.941 137.504 76.941 137.432 76.941 137.432L76.9495 137.436Z" fill="#E2B237"/>
<path d="M12.2606 97.8171C11.1341 90.3132 14.8947 85.0348 20.9126 84.0187C26.9897 82.9891 32.1056 86.7658 33.2321 94.2697C34.367 101.837 30.5979 107.052 24.525 108.082C18.5071 109.098 13.3998 105.384 12.2606 97.8171ZM26.1639 95.4656C25.5033 91.064 23.7839 89.5713 21.7977 89.9085C19.9301 90.2232 18.613 92.2285 19.2737 96.6301C19.9343 101.032 21.7723 102.502 23.6399 102.187C25.6261 101.85 26.8246 99.8673 26.1639 95.4656ZM45.1831 80.4848L53.5937 79.0596L32.186 127.194L23.7754 128.619L45.1831 80.4848ZM44.1921 113.4C43.0656 105.896 46.767 100.627 52.8441 99.602C58.9213 98.5724 64.0371 102.349 65.1636 109.853C66.2986 117.42 62.5295 122.635 56.4523 123.665C50.3751 124.694 45.3271 120.967 44.1921 113.4ZM58.0955 111.049C57.4348 106.647 55.6561 105.164 53.7292 105.492C51.8023 105.816 50.5445 107.812 51.2052 112.213C51.8658 116.615 53.6445 118.094 55.5714 117.77C57.4983 117.442 58.7561 115.451 58.0955 111.049Z" fill="white"/>
<path d="M239.005 81.8894L238.908 81.8314C238.908 81.8314 238.902 81.8314 238.896 81.8314L215.813 67.6902C215.813 67.6902 215.801 67.6837 215.789 67.6773L215.656 67.6064C204.872 61.8249 190.484 63.5587 175.013 74.2129C143.926 95.5987 120.238 144.854 122.103 184.217C123.035 203.836 130.138 217.288 140.88 223.198L140.977 223.256C140.977 223.256 140.983 223.256 140.989 223.263L164.078 237.41C164.078 237.41 164.084 237.41 164.09 237.41L164.205 237.475C174.989 243.276 189.388 241.548 204.878 230.888C235.965 209.489 259.659 160.233 257.794 120.878C256.862 101.258 249.759 87.8063 239.017 81.8958L239.005 81.8894Z" fill="#FDCD52"/>
<path d="M163.284 236.959L140.989 223.256H140.971L140.868 223.192C130.138 217.262 123.036 203.811 122.103 184.223C121.273 166.672 125.53 147.162 133.239 129.037L133.396 128.638L156.333 143.179C148.607 161.297 144.362 180.807 145.192 198.364C146.1 217.559 152.93 230.849 163.284 236.959Z" fill="#E2B237"/>
<path d="M204.872 230.888C235.959 209.489 259.653 160.233 257.782 120.878C255.917 81.522 229.201 66.9618 198.114 88.3606C167.027 109.759 143.333 159.015 145.198 198.371C147.063 237.733 173.778 252.286 204.866 230.888H204.872Z" fill="#FAD169"/>
<path d="M231.2 78.8407L192.234 164.268L183.848 154.593C181.262 151.603 177.575 149.888 173.73 149.888C170.254 149.888 166.93 151.268 164.368 153.775C158.792 159.26 158.446 168.561 163.593 174.503L185.689 199.976C188.135 202.799 191.465 204.462 195.068 204.668C195.323 204.681 195.577 204.687 195.831 204.687C196.491 204.687 197.157 204.636 197.829 204.532C202.347 203.817 206.234 200.788 208.214 196.424L252.902 98.4476C248.342 87.5871 240.706 80.8259 231.2 78.8278V78.8407Z" fill="#FDCD52"/>
<path d="M262.844 50.6936C262.602 50.5454 262.354 50.4036 262.093 50.2747C256.147 47.2131 248.966 49.8557 246.095 56.1658L196.509 164.874L193.694 161.625C192.852 160.659 191.907 159.859 190.884 159.234C189.407 158.332 183.121 154.458 182.104 153.833C177.696 151.126 171.949 151.635 167.989 155.509C163.145 160.272 162.848 168.348 167.317 173.511L189.413 198.989C190.254 199.956 191.217 200.768 192.265 201.406C193.706 202.283 199.967 206.144 200.996 206.775C202.613 207.774 204.436 208.361 206.349 208.471C207.136 208.516 207.93 208.483 208.747 208.361C212.671 207.742 216.043 205.106 217.763 201.323L276.42 72.7047C279.175 66.6525 277.025 59.4014 271.642 56.1013C271.394 55.9531 264.406 51.654 262.838 50.6936H262.844Z" fill="#685FD2"/>
<path opacity="0.15" d="M262.844 50.6936C262.602 50.5454 262.354 50.4036 262.093 50.2747C256.147 47.2131 248.966 49.8557 246.095 56.1658L196.509 164.874L193.694 161.625C192.852 160.659 191.907 159.859 190.884 159.234C189.407 158.332 183.121 154.458 182.104 153.833C177.696 151.126 171.949 151.635 167.989 155.509C163.145 160.272 162.848 168.348 167.317 173.511L189.413 198.989C190.254 199.956 191.217 200.768 192.265 201.406C193.706 202.283 199.967 206.144 200.996 206.775C202.613 207.774 204.436 208.361 206.349 208.471C207.136 208.516 207.93 208.483 208.747 208.361C212.671 207.742 216.043 205.106 217.763 201.323L276.42 72.7047C279.175 66.6525 277.025 59.4014 271.642 56.1013C271.394 55.9531 264.406 51.654 262.838 50.6936H262.844Z" fill="black"/>
<path opacity="0.15" d="M200.99 206.769C199.967 206.137 193.706 202.27 192.259 201.4C191.211 200.762 190.248 199.956 189.407 198.989L167.311 173.517C166.306 172.351 165.549 171.029 165.028 169.643L173.814 175.038C174.335 176.431 175.098 177.752 176.109 178.918L198.205 204.391C199.028 205.338 199.967 206.137 200.99 206.775V206.769Z" fill="black"/>
<path opacity="0.15" d="M257.661 57.6482C256.535 58.7182 255.584 60.0395 254.888 61.567L203.891 173.382L196.515 164.867L246.095 56.1658C246.792 54.6318 247.749 53.3169 248.875 52.247L257.661 57.6482Z" fill="black"/>
<path d="M270.886 55.6759C264.939 52.6144 257.758 55.257 254.888 61.567L203.891 173.382L193.694 161.625C189.237 156.476 181.656 156.147 176.782 160.916C171.937 165.68 171.641 173.756 176.109 178.918L198.205 204.397C200.324 206.846 203.219 208.29 206.349 208.471C207.136 208.516 207.93 208.483 208.747 208.361C212.671 207.742 216.043 205.106 217.763 201.323L276.42 72.7047C279.302 66.3753 276.82 58.7375 270.886 55.6759Z" fill="#685FD2"/>
</svg>
