<svg width="44" height="47" viewBox="0 0 44 47" fill="none" xmlns="http://www.w3.org/2000/svg">
<path d="M14.4152 1.07219C14.4152 1.07219 16.9993 11.6502 4.01955 9.04882C4.01955 9.04882 9.36389 17.9284 0 21.2715C0 21.2715 10.1401 25.3215 3.72498 33.5938C3.72498 33.5938 12.8504 30.5196 12.7164 41.4898C12.7164 41.4898 16.4008 37.1789 22.5167 38.1784C22.5167 38.1784 25.7912 38.6227 23.6669 41.4898C21.5426 44.3553 28.7884 43.4713 28.7884 43.4713C28.7884 43.4713 31.84 43.0775 31.0748 45.2393C30.308 47.4011 38.372 47.1386 41.9177 46.6974C41.9177 46.6974 32.9809 46.8967 33.8272 44.1055C34.672 41.3143 30.9641 41.8267 30.9641 41.8267C30.9641 41.8267 25.2317 43.0823 27.9483 40.0571C27.9483 40.0571 30.3002 37.8146 28.5312 37.617C27.169 37.4651 28.3722 31.0509 40.8626 34.0556C40.8626 34.0556 32.3684 23.7417 44 19.2853C44 19.2853 31.8167 18.1941 36.7121 4.1591C36.7121 4.1591 26.4396 12.4061 26.7762 0C26.7762 0 21.036 8.47318 14.4137 1.07378L14.4152 1.07219Z" fill="#685FD2"/>
</svg>
