<svg width="351" height="226" viewBox="0 0 351 226" fill="none" xmlns="http://www.w3.org/2000/svg">
<path d="M241.834 61.5774L196.186 51.9381C195.012 51.6911 194.262 50.5404 194.509 49.3663L200.468 21.1704C200.715 19.9964 201.865 19.2463 203.039 19.4932L248.692 29.1372C249.862 29.3888 250.612 30.5349 250.365 31.7089L244.411 59.9095C244.159 61.0789 243.013 61.829 241.839 61.5821L241.834 61.5774Z" fill="#EBEBEB"/>
<path d="M200.948 40.724L200.361 43.5007L200.076 43.4401L200.612 40.9243L199.955 40.7846L200.011 40.5237L200.948 40.724Z" fill="#E8E9EA"/>
<path d="M203.268 43.8455L203.212 44.1064L201.269 43.6964L201.311 43.4961L202.699 42.6109C203.077 42.3686 203.175 42.1962 203.217 42.0052C203.286 41.6837 203.1 41.4415 202.676 41.3483C202.392 41.2737 202.089 41.325 201.851 41.4974L201.688 41.2831C201.996 41.0641 202.387 40.9942 202.755 41.092C203.314 41.2132 203.613 41.5719 203.515 42.0471C203.459 42.308 203.328 42.5317 202.876 42.8205L201.74 43.5473L203.263 43.8501L203.268 43.8455Z" fill="#E8E9EA"/>
<path d="M206.282 43.9899L205.728 43.8734L205.574 44.6002L205.29 44.5397L205.443 43.8129L203.873 43.4821L203.934 43.2678L205.788 41.7443L206.105 41.8142L204.311 43.305L205.513 43.5613L205.648 42.9183L205.928 42.9789L205.793 43.6218L206.347 43.7383L206.287 43.9992L206.282 43.9899Z" fill="#E8E9EA"/>
<path d="M210.526 44.8891L209.972 44.7726L209.818 45.4994L209.529 45.4388L209.683 44.712L208.113 44.3812L208.16 44.1762L210.014 42.6481L210.331 42.718L208.537 44.2042L209.739 44.4604L209.874 43.8222L210.154 43.8781L210.019 44.521L210.573 44.6375L210.531 44.8891H210.526Z" fill="#E8E9EA"/>
<path d="M212.968 45.313C212.87 45.7836 212.46 46.0818 211.784 45.9373C211.416 45.8721 211.09 45.6671 210.866 45.369L211.053 45.1733C211.239 45.4342 211.519 45.6159 211.836 45.6718C212.306 45.7696 212.6 45.6019 212.679 45.2571C212.758 44.917 212.576 44.6328 211.873 44.4838L211.281 44.358L211.714 42.9976L213.233 43.319L213.177 43.5799L211.91 43.3144L211.631 44.1763L211.985 44.2508C212.819 44.4232 213.066 44.8192 212.963 45.3084L212.968 45.313Z" fill="#E8E9EA"/>
<path d="M215.707 45.8814C215.595 46.4032 215.12 46.6455 214.58 46.5337C213.848 46.3799 213.555 45.7836 213.736 44.9077C213.932 43.9666 214.552 43.5846 215.302 43.7337C215.535 43.7709 215.749 43.8734 215.926 44.0225L215.763 44.2275C215.619 44.0971 215.442 44.0132 215.251 43.9806C214.654 43.8548 214.188 44.1576 214.03 44.9077C214.016 44.9683 214.007 45.0522 213.993 45.136C214.221 44.8565 214.594 44.74 214.943 44.8425C215.493 44.9683 215.81 45.3736 215.702 45.8814H215.707ZM215.423 45.8255C215.502 45.4621 215.283 45.1733 214.85 45.0801C214.505 44.9683 214.137 45.1546 214.025 45.4948C214.025 45.5087 214.016 45.5227 214.016 45.532C213.951 45.8349 214.142 46.1796 214.622 46.2775C214.943 46.3893 215.292 46.2169 215.404 45.8908C215.414 45.8675 215.418 45.8442 215.423 45.8162V45.8255Z" fill="#E8E9EA"/>
<path d="M219.49 46.7107C219.392 47.1766 218.982 47.4608 218.311 47.3164C217.943 47.2511 217.613 47.0508 217.389 46.7526L217.575 46.557C217.762 46.8225 218.046 46.9996 218.363 47.0601C218.819 47.158 219.127 46.9902 219.192 46.6548C219.257 46.3194 219.076 46.0538 218.558 45.942L218.363 45.9001L218.409 45.6904L219.378 44.8891L217.962 44.5909L218.013 44.33L219.793 44.7074L219.751 44.9077L218.759 45.7323C219.346 45.8954 219.579 46.2728 219.481 46.7154L219.49 46.7107Z" fill="#E8E9EA"/>
<path d="M222.286 47.2651C222.174 47.7869 221.699 48.0292 221.158 47.9173C220.422 47.7636 220.128 47.1673 220.315 46.296C220.515 45.3549 221.13 44.9729 221.88 45.122C222.113 45.1592 222.327 45.2617 222.505 45.4108L222.341 45.6158C222.197 45.4854 222.02 45.4015 221.829 45.3689C221.233 45.2431 220.767 45.5459 220.608 46.296C220.59 46.3706 220.58 46.4451 220.571 46.5243C220.799 46.2494 221.172 46.133 221.517 46.2308C222.057 46.3566 222.369 46.7573 222.276 47.2651H222.286ZM222.006 47.2138C222.081 46.8504 221.862 46.5616 221.438 46.4731C221.093 46.3566 220.725 46.543 220.608 46.8877C220.608 46.9017 220.599 46.9157 220.594 46.9296C220.529 47.2325 220.72 47.5772 221.2 47.6797C221.526 47.7822 221.876 47.6005 221.978 47.2744C221.983 47.2604 221.987 47.2465 221.992 47.2278L222.006 47.2185V47.2138Z" fill="#E8E9EA"/>
<path d="M225.239 45.8628L225.197 46.0631L223.492 48.3832L223.185 48.318L224.857 46.0445L223.432 45.7416L223.32 46.2634L223.04 46.2029L223.203 45.4155L225.239 45.8534V45.8628Z" fill="#E8E9EA"/>
<path d="M229.19 46.6967L229.148 46.8971L227.448 49.2219L227.14 49.1567L228.813 46.8831L227.387 46.5849L227.28 47.1067L226.996 47.0462L227.159 46.2774L229.19 46.7014V46.6967Z" fill="#E8E9EA"/>
<path d="M231.496 49.2732C231.394 49.7623 230.914 49.9813 230.252 49.8415C229.591 49.7018 229.246 49.3104 229.353 48.8212C229.414 48.4951 229.693 48.2528 230.029 48.2435C229.782 48.1038 229.656 47.8196 229.726 47.5447C229.819 47.0928 230.262 46.8924 230.849 47.0136C231.436 47.1347 231.766 47.5028 231.673 47.964C231.617 48.2435 231.384 48.4532 231.1 48.4811C231.403 48.6209 231.566 48.9517 231.496 49.2778V49.2732ZM231.203 49.2079C231.273 48.8678 231.026 48.5883 230.536 48.4858C230.047 48.3833 229.712 48.537 229.637 48.8771C229.563 49.2172 229.81 49.4968 230.299 49.5993C230.793 49.7018 231.128 49.5527 231.198 49.2079H231.203ZM230.583 48.2622C231.016 48.3507 231.315 48.2156 231.375 47.9127C231.436 47.6099 231.207 47.3537 230.802 47.2651C230.392 47.1766 230.075 47.3117 230.015 47.6192C229.954 47.9267 230.154 48.1736 230.583 48.2622Z" fill="#E8E9EA"/>
<path d="M234.32 49.2033C234.119 50.1444 233.5 50.5264 232.75 50.3773C232.517 50.34 232.302 50.2375 232.125 50.0884L232.288 49.8835C232.433 50.0092 232.61 50.0978 232.801 50.1304C233.397 50.2562 233.863 49.9533 234.021 49.2033C234.035 49.1427 234.045 49.0588 234.059 48.975C233.83 49.2545 233.458 49.3663 233.108 49.2685C232.559 49.152 232.242 48.7467 232.354 48.2389C232.465 47.731 232.941 47.4748 233.481 47.5866C234.217 47.731 234.506 48.3274 234.324 49.2033H234.32ZM234.045 48.5696C234.11 48.2668 233.919 47.922 233.439 47.8195C233.113 47.7124 232.764 47.8894 232.652 48.2109C232.642 48.2342 232.638 48.2575 232.633 48.2808C232.559 48.6442 232.773 48.933 233.201 49.0216C233.542 49.138 233.914 48.9517 234.026 48.6116C234.031 48.5976 234.035 48.5836 234.04 48.5696H234.045Z" fill="#E8E9EA"/>
<path d="M237.418 48.4345L236.835 51.2066L236.551 51.146L237.087 48.6256L236.435 48.4905L236.486 48.2296L237.422 48.4345H237.418Z" fill="#E8E9EA"/>
<path d="M239.733 51.5513L239.682 51.8122L237.739 51.3929L237.781 51.1926L239.17 50.3074C239.547 50.0651 239.645 49.8928 239.687 49.7017C239.757 49.3803 239.57 49.138 239.146 49.0495C238.862 48.9703 238.564 49.0262 238.326 49.1986L238.163 48.9796C238.475 48.7606 238.862 48.6954 239.23 48.7932C239.789 48.9097 240.087 49.2731 239.99 49.7343C239.934 49.9952 239.803 50.2189 239.351 50.5077L238.214 51.2345L239.738 51.556L239.733 51.5513Z" fill="#E8E9EA"/>
<path d="M242.333 51.5374C242.235 51.9986 241.82 52.2828 241.154 52.143C240.786 52.0778 240.455 51.8728 240.232 51.5746L240.418 51.379C240.604 51.6445 240.889 51.8216 241.205 51.8821C241.662 51.98 241.97 51.8123 242.035 51.4768C242.1 51.1414 241.918 50.8758 241.401 50.764L241.205 50.7221L241.247 50.5077L242.216 49.7111L240.8 49.4082L240.851 49.1473L242.631 49.5201L242.589 49.7204L241.592 50.5543C242.188 50.7127 242.412 51.0855 242.324 51.5327L242.333 51.5374Z" fill="#E8E9EA"/>
<path d="M220.477 49.8916L220.223 51.095L242.408 55.7823L242.662 54.5789L220.477 49.8916Z" fill="#E8E9EA"/>
<path d="M230.779 54.583L230.525 55.7864L241.902 58.1902L242.157 56.9868L230.779 54.583Z" fill="#E8E9EA"/>
<g opacity="0.5">
<path d="M200.587 32.4134L199.627 36.8676C199.48 37.5493 199.914 38.2209 200.595 38.3678L207.391 39.832C208.072 39.9789 208.744 39.5454 208.891 38.8637L209.851 34.4095C209.997 33.7279 209.564 33.0562 208.882 32.9093L202.087 31.4451C201.405 31.2982 200.734 31.7318 200.587 32.4134Z" fill="#FAFAFA"/>
</g>
<path d="M200.174 36.0604L200.267 35.6131L205.061 36.6241C205.616 36.7406 206.161 36.3865 206.277 35.8368C206.394 35.2823 206.04 34.7372 205.49 34.6208L200.696 33.6051L200.789 33.1579L205.583 34.1689C206.38 34.3599 206.869 35.1612 206.678 35.9579C206.492 36.722 205.746 37.2065 204.973 37.0667L200.179 36.0511L200.174 36.0604Z" fill="#E0E0E0"/>
<path d="M206.544 35.6621L206.45 36.1087L209.74 36.8069L209.835 36.3603L206.544 35.6621Z" fill="#E0E0E0"/>
<path d="M203.529 25.5397L203.095 27.5956L227.037 32.6495L227.471 30.5936L203.529 25.5397Z" fill="#E8E9EA"/>
<path d="M239.929 32.6022L239.245 35.8433C239.153 36.2789 239.431 36.7065 239.867 36.7984L243.108 37.4826C243.543 37.5745 243.971 37.296 244.063 36.8605L244.747 33.6194C244.839 33.1838 244.561 32.7562 244.125 32.6643L240.884 31.9801C240.448 31.8881 240.021 32.1667 239.929 32.6022Z" fill="#E8E9EA"/>
<path d="M319.21 181.827C315.669 188.004 307.781 190.138 301.59 186.588C295.398 183.038 293.245 175.155 296.786 168.977C300.327 162.8 308.215 160.666 314.406 164.216C320.598 167.766 322.751 175.649 319.21 181.827Z" fill="#F5F5F5"/>
<path d="M316.545 180.299C313.847 185.004 307.837 186.63 303.118 183.928C298.398 181.226 296.758 175.216 299.456 170.51C302.153 165.8 308.168 164.179 312.883 166.881C317.602 169.583 319.242 175.593 316.545 180.303V180.299Z" fill="#EBEBEB"/>
<path d="M316.694 180.028C316.643 180 316.82 179.604 317.057 178.873C317.29 178.141 317.57 177.051 317.574 175.691C317.574 175.011 317.505 174.265 317.332 173.492C317.15 172.718 316.876 171.908 316.461 171.116C316.256 170.72 316.018 170.328 315.743 169.951C315.469 169.574 315.17 169.201 314.83 168.856C314.49 168.511 314.127 168.181 313.726 167.878C313.325 167.58 312.897 167.305 312.445 167.063C311.988 166.825 311.522 166.62 311.052 166.457C310.581 166.289 310.102 166.173 309.622 166.084C309.146 165.996 308.671 165.954 308.205 165.935C307.739 165.916 307.283 165.94 306.84 165.991C305.955 166.089 305.126 166.308 304.385 166.592C303.644 166.881 302.987 167.24 302.424 167.622C301.296 168.386 300.551 169.229 300.071 169.83C299.596 170.436 299.367 170.808 299.316 170.776C299.279 170.757 299.419 170.338 299.833 169.658C300.248 168.987 300.965 168.05 302.116 167.188C302.689 166.76 303.369 166.35 304.147 166.014C304.93 165.683 305.806 165.423 306.756 165.301C307.232 165.241 307.721 165.204 308.224 165.213C308.727 165.222 309.24 165.26 309.752 165.353C310.265 165.441 310.786 165.567 311.294 165.744C311.807 165.921 312.31 166.135 312.799 166.396C313.288 166.662 313.749 166.955 314.178 167.281C314.611 167.608 315.003 167.966 315.366 168.344C315.73 168.721 316.051 169.122 316.335 169.532C316.624 169.942 316.871 170.37 317.085 170.799C317.514 171.656 317.789 172.527 317.952 173.361C318.11 174.195 318.147 174.987 318.115 175.705C318.04 177.144 317.663 178.258 317.341 178.98C317.011 179.702 316.745 180.052 316.703 180.033L316.694 180.028Z" fill="#E0E0E0"/>
<path d="M306.048 181.053L305.219 182.553L303.882 181.813L304.692 180.354C303.411 179.539 302.368 178.421 301.948 177.433L303.588 176.208C303.984 177.075 304.748 177.969 305.662 178.598L306.901 176.362C305.615 175.178 304.227 173.762 305.289 171.843C306.076 170.422 307.781 169.774 310.032 170.706L310.856 169.22L312.198 169.96L311.387 171.423C312.347 172.062 313.176 172.868 313.656 173.748L312.072 175.025C311.606 174.256 311.033 173.646 310.409 173.194L309.146 175.472C310.442 176.641 311.802 178.044 310.754 179.935C309.98 181.328 308.294 181.971 306.053 181.058L306.048 181.053ZM307.986 174.386L309.039 172.486C308.243 172.253 307.744 172.486 307.497 172.928C307.236 173.399 307.497 173.874 307.986 174.386ZM308.503 178.896C308.764 178.426 308.517 177.96 308.052 177.438L307.027 179.288C307.777 179.511 308.266 179.325 308.503 178.896Z" fill="#E0E0E0"/>
<path d="M291.983 125.878C288.442 132.055 280.555 134.189 274.363 130.639C268.171 127.089 266.019 119.206 269.56 113.028C273.1 106.85 280.988 104.717 287.18 108.267C293.372 111.817 295.524 119.7 291.983 125.878Z" fill="#F5F5F5"/>
<path d="M289.318 124.349C286.621 129.055 280.611 130.681 275.891 127.979C271.172 125.277 269.532 119.267 272.229 114.561C274.927 109.855 280.941 108.23 285.656 110.932C290.376 113.634 292.016 119.644 289.318 124.354V124.349Z" fill="#EBEBEB"/>
<path d="M289.467 124.079C289.416 124.051 289.593 123.655 289.831 122.924C290.064 122.192 290.343 121.102 290.348 119.742C290.348 119.062 290.278 118.316 290.106 117.543C289.924 116.769 289.649 115.959 289.234 115.167C289.029 114.771 288.792 114.379 288.517 114.002C288.242 113.625 287.944 113.252 287.604 112.907C287.264 112.562 286.9 112.232 286.5 111.933C286.099 111.635 285.67 111.36 285.218 111.113C284.762 110.876 284.296 110.671 283.825 110.508C283.355 110.34 282.875 110.224 282.395 110.135C281.92 110.046 281.445 110.005 280.979 109.986C280.513 109.967 280.056 109.991 279.614 110.042C278.728 110.14 277.899 110.359 277.158 110.643C276.418 110.932 275.761 111.29 275.197 111.672C274.07 112.437 273.324 113.28 272.844 113.881C272.369 114.486 272.141 114.859 272.089 114.827C272.052 114.808 272.192 114.389 272.607 113.713C273.021 113.042 273.739 112.106 274.89 111.244C275.463 110.815 276.143 110.405 276.921 110.07C277.704 109.739 278.579 109.478 279.53 109.357C280.005 109.296 280.494 109.259 280.997 109.268C281.501 109.278 282.013 109.315 282.526 109.408C283.038 109.497 283.56 109.623 284.068 109.8C284.58 109.977 285.083 110.191 285.572 110.452C286.062 110.717 286.523 111.011 286.952 111.337C287.385 111.663 287.776 112.022 288.14 112.399C288.503 112.777 288.824 113.177 289.109 113.587C289.397 113.997 289.644 114.426 289.859 114.855C290.287 115.712 290.562 116.583 290.725 117.417C290.884 118.251 290.921 119.043 290.888 119.76C290.814 121.2 290.436 122.313 290.115 123.036C289.784 123.758 289.519 124.107 289.477 124.089L289.467 124.079Z" fill="#E0E0E0"/>
<path d="M278.817 125.104L277.988 126.604L276.651 125.864L277.461 124.405C276.18 123.59 275.136 122.472 274.717 121.484L276.357 120.259C276.753 121.125 277.517 122.02 278.43 122.649L279.67 120.413C278.384 119.229 276.995 117.813 278.058 115.893C278.845 114.472 280.55 113.825 282.8 114.757L283.625 113.27L284.967 114.011L284.156 115.474C285.116 116.112 285.945 116.918 286.425 117.799L284.841 119.076C284.37 118.307 283.802 117.696 283.178 117.245L281.915 119.523C283.21 120.692 284.571 122.095 283.523 123.986C282.749 125.379 281.063 126.022 278.822 125.109L278.817 125.104ZM280.76 118.437L281.813 116.536C281.016 116.303 280.518 116.536 280.271 116.979C280.01 117.45 280.271 117.925 280.76 118.437ZM281.277 122.947C281.538 122.477 281.291 122.011 280.825 121.489L279.8 123.338C280.55 123.562 281.039 123.376 281.277 122.947Z" fill="#E0E0E0"/>
<path d="M127.871 22.6768C123.72 29.9261 114.463 32.428 107.2 28.2629C99.9362 24.1024 97.4111 14.8498 101.567 7.60048C105.718 0.351174 114.975 -2.15068 122.239 2.01442C129.502 6.17485 132.027 15.4275 127.871 22.6768Z" fill="#F5F5F5"/>
<path d="M124.74 20.8831C121.577 26.404 114.523 28.3141 108.984 25.1414C103.449 21.9686 101.525 14.9197 104.688 9.39883C107.852 3.87333 114.905 1.96782 120.445 5.14056C125.98 8.3133 127.904 15.3623 124.74 20.8831Z" fill="#EBEBEB"/>
<path d="M124.922 20.5663C124.862 20.5337 125.071 20.0678 125.346 19.2105C125.616 18.3533 125.947 17.0768 125.952 15.4741C125.952 14.6774 125.873 13.8062 125.668 12.893C125.458 11.9845 125.132 11.0341 124.643 10.107C124.4 9.64109 124.125 9.18451 123.799 8.74191C123.478 8.29931 123.128 7.86137 122.728 7.46071C122.332 7.05538 121.903 6.66403 121.428 6.31461C120.957 5.96519 120.454 5.64372 119.923 5.35487C119.387 5.07533 118.842 4.83772 118.288 4.64205C117.733 4.44637 117.17 4.31126 116.611 4.20411C116.052 4.09695 115.492 4.05036 114.947 4.03173C114.402 4.00843 113.862 4.04104 113.345 4.09695C112.306 4.20877 111.332 4.46967 110.461 4.80511C109.59 5.14521 108.821 5.56918 108.159 6.01178C106.836 6.90629 105.96 7.89399 105.401 8.60215C104.842 9.31496 104.577 9.74824 104.516 9.71563C104.469 9.69234 104.632 9.20315 105.122 8.40647C105.611 7.61911 106.449 6.5196 107.796 5.50861C108.471 5.00545 109.268 4.52557 110.181 4.12956C111.099 3.74287 112.129 3.43538 113.242 3.29096C113.797 3.21641 114.374 3.17448 114.961 3.18846C115.548 3.19778 116.154 3.24437 116.755 3.35152C117.361 3.45868 117.966 3.6031 118.567 3.8081C119.168 4.01309 119.76 4.26933 120.333 4.57216C120.906 4.87965 121.447 5.22907 121.954 5.61111C122.462 5.99314 122.919 6.4171 123.347 6.8597C123.776 7.29764 124.149 7.77285 124.484 8.25738C124.824 8.73725 125.113 9.24042 125.365 9.74358C125.868 10.7499 126.189 11.7749 126.38 12.7486C126.567 13.727 126.613 14.6541 126.571 15.4974C126.483 17.1839 126.045 18.4931 125.663 19.3363C125.276 20.1843 124.959 20.5943 124.917 20.571L124.922 20.5663Z" fill="#E0E0E0"/>
<path d="M112.427 21.7683L111.453 23.5294L109.883 22.6582L110.834 20.9437C109.329 19.9886 108.108 18.6748 107.619 17.5194L109.543 16.0797C110.009 17.0954 110.903 18.1483 111.975 18.8844L113.429 16.2614C111.919 14.8731 110.293 13.2098 111.537 10.9642C112.459 9.29633 114.463 8.53693 117.104 9.63178L118.069 7.88467L119.639 8.7559L118.688 10.4704C119.816 11.2158 120.79 12.1662 121.349 13.1959L119.494 14.696C118.945 13.7969 118.274 13.0747 117.542 12.5483L116.061 15.2225C117.58 16.5969 119.173 18.2415 117.948 20.4591C117.044 22.0944 115.064 22.8445 112.432 21.7776L112.427 21.7683ZM114.705 13.9506L115.94 11.719C115.003 11.4441 114.421 11.719 114.132 12.2361C113.829 12.7859 114.132 13.345 114.705 13.9506ZM115.311 19.2338C115.614 18.6841 115.325 18.1343 114.78 17.524L113.578 19.6951C114.458 19.956 115.031 19.7417 115.311 19.2385V19.2338Z" fill="#E0E0E0"/>
<path d="M70.734 72.0755C66.5829 79.3248 57.3256 81.8267 50.0623 77.6616C42.799 73.5012 40.2739 64.2485 44.4296 56.9992C48.5808 49.7499 57.8381 47.248 65.1013 51.4131C72.3646 55.5736 74.8898 64.8262 70.734 72.0755Z" fill="#F5F5F5"/>
<path d="M67.6079 70.2819C64.4445 75.8027 57.3909 77.7129 51.8514 74.5401C46.3166 71.3674 44.3924 64.3184 47.5558 58.7976C50.7193 53.2721 57.7729 51.3666 63.3124 54.5393C68.8472 57.712 70.7713 64.761 67.6079 70.2819Z" fill="#EBEBEB"/>
<path d="M67.7849 69.9651C67.7244 69.9325 67.934 69.4666 68.2089 68.6093C68.4791 67.7521 68.8099 66.4755 68.8146 64.8728C68.8146 64.0762 68.7354 63.205 68.5304 62.2918C68.3207 61.3833 67.9946 60.4329 67.5054 59.5058C67.2631 59.0399 66.9883 58.5833 66.6621 58.1407C66.3407 57.6981 65.9913 57.2601 65.5906 56.8595C65.1946 56.4542 64.766 56.0628 64.2907 55.7134C63.8202 55.364 63.317 55.0425 62.7859 54.7536C62.2501 54.4741 61.705 54.2365 61.1506 54.0408C60.5962 53.8451 60.0325 53.71 59.4734 53.6029C58.9143 53.4957 58.3553 53.4491 57.8102 53.4305C57.2651 53.4072 56.7246 53.4398 56.2075 53.4957C55.1685 53.6075 54.1948 53.8684 53.3236 54.2039C52.4524 54.544 51.6837 54.9679 51.0221 55.4105C49.6989 56.3051 48.8231 57.2928 48.264 58.0009C47.7049 58.7137 47.4394 59.147 47.3788 59.1144C47.3322 59.0911 47.4953 58.6019 47.9845 57.8052C48.4736 57.0179 49.3123 55.9184 50.6587 54.9074C51.3342 54.4042 52.1309 53.9243 53.0441 53.5283C53.9619 53.1416 54.9915 52.8342 56.105 52.6897C56.6594 52.6152 57.2371 52.5733 57.8241 52.5872C58.4112 52.5966 59.0168 52.6431 59.6178 52.7503C60.2235 52.8574 60.8292 53.0019 61.4302 53.2069C62.0312 53.4119 62.6228 53.6681 63.1959 53.9709C63.7689 54.2784 64.3094 54.6278 64.8172 55.0099C65.325 55.3919 65.7816 55.8159 66.2102 56.2585C66.6388 56.6964 67.0116 57.1716 67.347 57.6562C67.6871 58.136 67.976 58.6392 68.2275 59.1424C68.7307 60.1487 69.0522 61.1737 69.2432 62.1474C69.4296 63.1258 69.4761 64.0529 69.4342 64.8961C69.3457 66.5827 68.9077 67.8918 68.5257 68.7351C68.139 69.583 67.8222 69.993 67.7803 69.9697L67.7849 69.9651Z" fill="#E0E0E0"/>
<path d="M55.2896 71.1671L54.3159 72.9281L52.7458 72.0569L53.6963 70.3424C52.1914 69.3873 50.9708 68.0735 50.4816 66.9181L52.4057 65.4785C52.8716 66.4941 53.7661 67.5471 54.8377 68.2832L56.2913 65.6602C54.7818 64.2718 53.1558 62.6086 54.3998 60.363C55.3222 58.6951 57.3256 57.9357 59.9625 59.0305L60.9269 57.2834L62.497 58.1546L61.5466 59.8691C62.674 60.6146 63.6478 61.565 64.2068 62.5946L62.3479 64.0948C61.7982 63.1956 61.1273 62.4735 60.3958 61.947L58.9143 64.6212C60.4331 65.9956 62.0264 67.6402 60.8011 69.8579C59.8973 71.4932 57.9173 72.2433 55.285 71.1764L55.2896 71.1671ZM57.5678 63.3494L58.8025 61.1177C57.866 60.8428 57.2836 61.1177 56.9948 61.6349C56.692 62.1846 56.9948 62.7437 57.5678 63.3494ZM58.1735 68.6373C58.4763 68.0875 58.1875 67.5377 57.6424 66.9274L56.4404 69.0985C57.3209 69.3594 57.894 69.1451 58.1735 68.6419V68.6373Z" fill="#E0E0E0"/>
<path d="M20.2796 114.358C17.3025 119.548 10.6728 121.341 5.46881 118.36C0.264772 115.378 -1.5429 108.753 1.43417 103.558C4.41123 98.3682 11.0409 96.5746 16.2449 99.5563C21.449 102.538 23.2566 109.163 20.2796 114.358Z" fill="#F5F5F5"/>
<path d="M18.0386 113.072C15.7697 117.027 10.7194 118.392 6.75466 116.123C2.7899 113.85 1.41086 108.8 3.67976 104.844C5.94866 100.889 10.999 99.5237 14.9637 101.793C18.9285 104.066 20.3075 109.116 18.0386 113.072Z" fill="#EBEBEB"/>
<path d="M18.1644 112.848C18.1178 112.825 18.2716 112.494 18.4673 111.875C18.6629 111.26 18.8959 110.346 18.9005 109.2C18.9005 108.627 18.8446 108.003 18.6955 107.351C18.5418 106.698 18.3135 106.018 17.9594 105.357C17.787 105.026 17.5867 104.695 17.3584 104.378C17.1301 104.061 16.8786 103.749 16.5897 103.46C16.3055 103.172 15.998 102.892 15.6579 102.64C15.3225 102.389 14.9591 102.161 14.5817 101.951C14.1997 101.751 13.8083 101.583 13.4123 101.443C13.0163 101.303 12.611 101.206 12.2103 101.131C11.8096 101.056 11.409 101.019 11.0176 101.005C10.6263 100.991 10.2396 101.01 9.86685 101.052C9.12142 101.131 8.42724 101.322 7.80294 101.56C7.17865 101.802 6.62889 102.105 6.15368 102.426C5.20326 103.069 4.57896 103.777 4.17829 104.28C3.77762 104.788 3.5866 105.1 3.54467 105.077C3.51206 105.058 3.62854 104.709 3.97796 104.141C4.32738 103.577 4.92838 102.79 5.89278 102.063C6.37731 101.704 6.9457 101.359 7.60261 101.075C8.25952 100.8 8.99563 100.577 9.79697 100.474C10.1976 100.423 10.6076 100.39 11.0316 100.4C11.4509 100.409 11.8842 100.441 12.3175 100.516C12.7507 100.591 13.184 100.698 13.6173 100.842C14.0459 100.991 14.4699 101.173 14.8845 101.387C15.2945 101.611 15.6812 101.858 16.0446 102.133C16.408 102.408 16.7388 102.71 17.0416 103.027C17.3491 103.344 17.6147 103.679 17.8569 104.029C18.0992 104.374 18.3089 104.732 18.4859 105.091C18.8446 105.813 19.0776 106.545 19.2127 107.244C19.3431 107.942 19.3804 108.609 19.3478 109.214C19.2872 110.421 18.9704 111.357 18.6955 111.963C18.416 112.569 18.1924 112.867 18.1598 112.848H18.1644Z" fill="#E0E0E0"/>
<path d="M9.21454 113.71L8.5157 114.973L7.38824 114.348L8.06844 113.123C6.99223 112.438 6.11635 111.497 5.76227 110.668L7.14131 109.638C7.4721 110.365 8.11503 111.12 8.88376 111.646L9.92736 109.764C8.84649 108.767 7.68175 107.579 8.57161 105.967C9.23318 104.774 10.6681 104.229 12.5597 105.012L13.2538 103.763L14.3813 104.388L13.7011 105.613C14.5071 106.149 15.2059 106.829 15.6066 107.565L14.2788 108.637C13.8875 107.994 13.4076 107.476 12.8811 107.094L11.8189 109.009C12.9044 109.992 14.0505 111.171 13.17 112.76C12.5224 113.929 11.1061 114.47 9.2192 113.705L9.21454 113.71ZM10.8452 108.11L11.7304 106.512C11.0595 106.316 10.6402 106.512 10.4352 106.885C10.2162 107.281 10.4352 107.681 10.8452 108.11ZM11.2785 111.893C11.4974 111.497 11.2878 111.106 10.8964 110.668L10.0345 112.224C10.6681 112.41 11.0781 112.257 11.2738 111.898L11.2785 111.893Z" fill="#E0E0E0"/>
<path d="M88.3756 122.11C91.518 112.702 86.4386 102.528 77.0304 99.3852C67.6222 96.2427 57.4479 101.322 54.3054 110.73C51.163 120.139 56.2423 130.313 65.6506 133.455C75.0588 136.598 85.2331 131.518 88.3756 122.11Z" fill="#FDCD52"/>
<g opacity="0.1">
<path d="M61.7222 101.253C53.3547 106.564 50.8762 117.657 56.192 126.024C56.192 126.024 56.192 126.024 56.192 126.029C56.192 126.029 67.1498 119.749 66.9914 113.832C66.833 107.915 61.7175 101.253 61.7175 101.253H61.7222Z" fill="#E8E9EA"/>
</g>
<path d="M70.8165 128.556C78.3338 128.319 84.2352 122.032 83.9977 114.515C83.7601 106.997 77.4736 101.096 69.9563 101.334C62.439 101.571 56.5375 107.858 56.7751 115.375C57.0127 122.892 63.2992 128.794 70.8165 128.556Z" fill="#FDCD52"/>
<g opacity="0.2">
<path d="M70.8165 128.556C78.3338 128.319 84.2352 122.032 83.9977 114.515C83.7601 106.997 77.4736 101.096 69.9563 101.334C62.439 101.571 56.5375 107.858 56.7751 115.375C57.0127 122.892 63.2992 128.794 70.8165 128.556Z" fill="black"/>
</g>
<path d="M83.1067 109.294C87.0994 115.57 85.2452 123.895 78.9649 127.888C72.6893 131.881 64.3638 130.026 60.3711 123.746C56.3784 117.471 58.2327 109.145 64.5129 105.152C64.5129 105.152 64.5176 105.152 64.5222 105.148C70.7978 101.164 79.114 103.018 83.1067 109.294Z" fill="#FDCD52"/>
<g opacity="0.2">
<path d="M83.1067 109.294C87.0994 115.57 85.2452 123.895 78.9649 127.888C72.6893 131.881 64.3638 130.026 60.3711 123.746C56.3784 117.471 58.2327 109.145 64.5129 105.152C64.5129 105.152 64.5176 105.152 64.5222 105.148C70.7978 101.164 79.114 103.018 83.1067 109.294Z" fill="#E8E9EA"/>
</g>
<path d="M71.5619 115.234L69.7169 112.327C70.29 112.057 70.9003 111.861 71.5246 111.749C71.86 111.721 72.2002 111.721 72.5403 111.749L72.517 111.633L72.3026 110.3L72.2421 109.998L71.3802 109.783L71.1985 110.049C70.3319 110.123 69.4887 110.37 68.7199 110.776L67.6996 109.173L66.9495 109.089L67.2011 109.49L66.5209 109.928L67.5505 111.558C65.44 113.203 65.1884 115.183 66.1156 116.632C67.3875 118.635 69.4327 118.067 71.2823 117.438L73.1133 120.322C72.0138 120.899 70.7699 121.146 69.5306 121.039L69.8055 122.907C70.9702 123.085 72.6334 122.675 74.0963 121.869L74.8651 123.075L74.3107 123.443L75.112 123.467L76.2907 122.702L75.2657 121.086C77.3855 119.423 77.6558 117.457 76.7286 115.994C75.48 114.009 73.4161 114.61 71.5665 115.234H71.5619ZM70.1875 115.681C69.1951 115.966 68.3752 116.045 67.9326 115.351C67.49 114.657 67.6437 113.916 68.5615 113.124L70.1875 115.681ZM74.2874 119.534L72.666 116.981C73.6864 116.678 74.5343 116.609 74.9815 117.307C75.3729 117.932 75.2424 118.705 74.2874 119.53V119.534Z" fill="#FDCD52"/>
<g opacity="0.3">
<path d="M71.5619 115.234L69.7169 112.327C70.29 112.057 70.9003 111.861 71.5246 111.749C71.86 111.721 72.2002 111.721 72.5403 111.749L72.517 111.633L72.3026 110.3L72.2421 109.998L71.3802 109.783L71.1985 110.049C70.3319 110.123 69.4887 110.37 68.7199 110.776L67.6996 109.173L66.9495 109.089L67.2011 109.49L66.5209 109.928L67.5505 111.558C65.44 113.203 65.1884 115.183 66.1156 116.632C67.3875 118.635 69.4327 118.067 71.2823 117.438L73.1133 120.322C72.0138 120.899 70.7699 121.146 69.5306 121.039L69.8055 122.907C70.9702 123.085 72.6334 122.675 74.0963 121.869L74.8651 123.075L74.3107 123.443L75.112 123.467L76.2907 122.702L75.2657 121.086C77.3855 119.423 77.6558 117.457 76.7286 115.994C75.48 114.009 73.4161 114.61 71.5665 115.234H71.5619ZM70.1875 115.681C69.1951 115.966 68.3752 116.045 67.9326 115.351C67.49 114.657 67.6437 113.916 68.5615 113.124L70.1875 115.681ZM74.2874 119.534L72.666 116.981C73.6864 116.678 74.5343 116.609 74.9815 117.307C75.3729 117.932 75.2424 118.705 74.2874 119.53V119.534Z" fill="black"/>
</g>
<path d="M74.5436 121.016L75.5732 122.633L74.3945 123.397L73.3789 121.794C71.9113 122.614 70.2481 123.01 69.0833 122.842L68.8085 120.974C70.0477 121.077 71.2917 120.83 72.3912 120.257L70.5602 117.373C68.7106 117.997 66.6653 118.565 65.3981 116.562C64.4617 115.09 64.7086 113.133 66.8284 111.493L65.7988 109.862L66.9775 109.098L67.9931 110.701C69.0507 110.091 70.2481 109.755 71.4734 109.723L71.8041 111.558C70.8211 111.596 69.8567 111.833 68.9715 112.257L70.8211 115.174C72.6707 114.545 74.7346 113.944 76.0019 115.952C76.9383 117.401 76.6681 119.357 74.5436 121.025V121.016ZM69.4467 115.593L67.8161 113.021C66.8936 113.832 66.7865 114.624 67.2104 115.244C67.6344 115.863 68.4497 115.882 69.4421 115.593H69.4467ZM74.2454 117.224C73.7935 116.515 72.9502 116.585 71.9299 116.888L73.5513 119.441C74.497 118.617 74.6368 117.843 74.2454 117.224Z" fill="#FDCD52"/>
<path d="M67.1405 117.112C66.9495 117.116 66.7632 117.075 66.5908 116.991C66.1668 116.814 65.8127 116.501 65.5798 116.105C65.3469 115.705 65.2537 115.239 65.3142 114.782C65.3142 114.587 65.3701 114.396 65.4726 114.228C65.4726 114.228 65.4261 114.438 65.4074 114.768C65.3795 115.202 65.482 115.635 65.7009 116.012C65.9246 116.385 66.2507 116.683 66.642 116.874C66.9402 117.056 67.1499 117.093 67.1452 117.112H67.1405Z" fill="#E8E9EA"/>
<path d="M66.9169 111.06C66.8796 111.069 66.7259 110.883 66.5582 110.608C66.3904 110.333 66.2833 110.137 66.3159 110.1C66.3439 110.063 66.5023 110.277 66.6746 110.552C66.847 110.827 66.9495 111.041 66.9169 111.06Z" fill="#E8E9EA"/>
<path d="M255.87 87.3426C262.789 82.7475 264.673 73.4134 260.078 66.4945C255.483 59.5756 246.149 57.6919 239.23 62.287C232.311 66.8822 230.427 76.2162 235.022 83.1351C239.617 90.054 248.951 91.9378 255.87 87.3426Z" fill="#FDCD52"/>
<g opacity="0.1">
<path d="M249.596 59.8976C241.373 58.7701 233.793 64.5239 232.666 72.747C232.666 72.747 232.666 72.747 232.666 72.7516C232.666 72.7516 243.069 74.6618 246.167 70.7902C249.265 66.9186 249.596 59.8976 249.596 59.8976Z" fill="#E8E9EA"/>
</g>
<path d="M259.066 74.7559C259.848 68.5057 255.415 62.8052 249.165 62.0234C242.915 61.2416 237.214 65.6745 236.432 71.9247C235.65 78.1748 240.083 83.8753 246.334 84.6572C252.584 85.439 258.284 81.006 259.066 74.7559Z" fill="#FDCD52"/>
<g opacity="0.2">
<path d="M259.066 74.7559C259.848 68.5057 255.415 62.8052 249.165 62.0234C242.915 61.2416 237.214 65.6745 236.432 71.9247C235.65 78.1748 240.083 83.8753 246.334 84.6572C252.584 85.439 258.284 81.006 259.066 74.7559Z" fill="black"/>
</g>
<path d="M258.928 76.5999C258.085 82.773 252.401 87.0918 246.228 86.2532C240.055 85.41 235.736 79.7261 236.574 73.553C237.418 67.3799 243.102 63.061 249.275 63.8996C249.275 63.8996 249.279 63.8996 249.284 63.8996C255.452 64.7476 259.767 70.4315 258.923 76.5999H258.928Z" fill="#FDCD52"/>
<g opacity="0.2">
<path d="M258.928 76.5999C258.085 82.773 252.401 87.0918 246.228 86.2532C240.055 85.41 235.736 79.7261 236.574 73.553C237.418 67.3799 243.102 63.061 249.275 63.8996C249.275 63.8996 249.279 63.8996 249.284 63.8996C255.452 64.7476 259.767 70.4315 258.923 76.5999H258.928Z" fill="#E8E9EA"/>
</g>
<path d="M248.329 74.1539L248.72 71.298C249.233 71.4331 249.727 71.6381 250.188 71.9037C250.421 72.0667 250.635 72.2531 250.835 72.4534L250.882 72.3649L251.464 71.3959L251.59 71.1676L251.157 70.5619L250.896 70.6364C250.3 70.2171 249.629 69.919 248.916 69.7606L249.13 68.1858L248.697 67.7246L248.641 68.116L247.97 68.0274L247.747 69.6301C245.506 69.5369 244.276 70.6737 244.089 72.0994C243.819 74.0701 245.436 74.8109 246.959 75.4072L246.568 78.2398C245.552 78.0115 244.62 77.4991 243.889 76.763L243.055 78.1047C243.703 78.8455 244.988 79.4838 246.363 79.7586L246.2 80.9467L245.645 80.8815L246.149 81.3287L247.318 81.4778L247.537 79.8891C249.792 79.9683 251.026 78.8595 251.227 77.4245C251.502 75.4771 249.857 74.7503 248.338 74.1493L248.329 74.1539ZM247.211 73.702C246.423 73.3479 245.855 72.9566 245.948 72.2717C246.041 71.5869 246.54 71.2002 247.556 71.1862L247.215 73.702H247.211ZM247.751 78.3796L248.096 75.8731C248.911 76.2318 249.494 76.6418 249.396 77.336C249.307 77.9463 248.804 78.3703 247.751 78.3843V78.3796Z" fill="#FDCD52"/>
<g opacity="0.3">
<path d="M248.329 74.1539L248.72 71.298C249.233 71.4331 249.727 71.6381 250.188 71.9037C250.421 72.0667 250.635 72.2531 250.835 72.4534L250.882 72.3649L251.464 71.3959L251.59 71.1676L251.157 70.5619L250.896 70.6364C250.3 70.2171 249.629 69.919 248.916 69.7606L249.13 68.1858L248.697 67.7246L248.641 68.116L247.97 68.0274L247.747 69.6301C245.506 69.5369 244.276 70.6737 244.089 72.0994C243.819 74.0701 245.436 74.8109 246.959 75.4072L246.568 78.2398C245.552 78.0115 244.62 77.4991 243.889 76.763L243.055 78.1047C243.703 78.8455 244.988 79.4838 246.363 79.7586L246.2 80.9467L245.645 80.8815L246.149 81.3287L247.318 81.4778L247.537 79.8891C249.792 79.9683 251.026 78.8595 251.227 77.4245C251.502 75.4771 249.857 74.7503 248.338 74.1493L248.329 74.1539ZM247.211 73.702C246.423 73.3479 245.855 72.9566 245.948 72.2717C246.041 71.5869 246.54 71.2002 247.556 71.1862L247.215 73.702H247.211ZM247.751 78.3796L248.096 75.8731C248.911 76.2318 249.494 76.6418 249.396 77.336C249.307 77.9463 248.804 78.3703 247.751 78.3843V78.3796Z" fill="black"/>
</g>
<path d="M247.113 79.4652L246.899 81.0538L245.729 80.9048L245.948 79.33C244.564 79.0598 243.288 78.4169 242.636 77.6761L243.47 76.3343C244.206 77.0705 245.138 77.5829 246.149 77.8112L246.54 74.9786C245.021 74.3776 243.404 73.6368 243.679 71.6661C243.875 70.2172 245.091 69.1037 247.337 69.1969L247.56 67.5942L248.73 67.7433L248.511 69.318C249.517 69.4997 250.467 69.933 251.264 70.5759L250.486 71.927C249.838 71.4192 249.093 71.0511 248.296 70.8415L247.905 73.7067C249.428 74.303 251.073 75.0345 250.798 77.0052C250.612 78.4402 249.382 79.5444 247.122 79.4605L247.113 79.4652ZM246.782 73.2455L247.132 70.7203C246.102 70.739 245.608 71.1909 245.543 71.8152C245.478 72.4395 245.99 72.8961 246.782 73.2455ZM248.967 76.8794C249.06 76.1806 248.483 75.7706 247.667 75.4165L247.323 77.923C248.375 77.9091 248.883 77.4898 248.967 76.8794Z" fill="#FDCD52"/>
<path d="M244.49 72.9706C244.364 72.8727 244.266 72.7423 244.206 72.5978C244.033 72.2531 243.973 71.8664 244.038 71.4844C244.108 71.1023 244.299 70.7576 244.583 70.4967C244.69 70.3709 244.83 70.2777 244.984 70.2264C244.984 70.2264 244.839 70.3336 244.653 70.5339C244.401 70.7995 244.234 71.1303 244.168 71.489C244.113 71.8478 244.159 72.2158 244.304 72.5466C244.397 72.8261 244.509 72.9612 244.495 72.9752L244.49 72.9706Z" fill="#E8E9EA"/>
<path d="M247.616 68.9779C247.588 68.9639 247.588 68.7589 247.63 68.4933C247.672 68.2278 247.709 68.0461 247.747 68.0367C247.784 68.0274 247.77 68.2511 247.733 68.5213C247.691 68.7915 247.644 68.9825 247.616 68.9779Z" fill="#E8E9EA"/>
<path d="M332.231 215.609H349.553V209.086H332.231V215.609Z" fill="#EBEBEB"/>
<path d="M295.868 209.328H350.271V207.963H295.868V209.328Z" fill="#455A64"/>
<path d="M295.868 216.685H350.019V215.32H295.868V216.685Z" fill="#455A64"/>
<path d="M332.231 208.29L332.148 216.424H295.873V208.29H332.231Z" fill="#455A64"/>
<path d="M323.412 212.352C323.412 213.47 324.288 214.374 325.373 214.374C326.459 214.374 327.335 213.466 327.335 212.352C327.335 211.239 326.459 210.33 325.373 210.33C324.288 210.33 323.412 211.234 323.412 212.352Z" fill="#263238"/>
<path d="M323.109 212.352C323.109 211.076 324.125 210.037 325.373 210.037C326.622 210.037 327.638 211.076 327.638 212.352C327.638 213.629 326.622 214.668 325.373 214.668C324.125 214.668 323.109 213.629 323.109 212.352ZM323.72 212.352C323.72 213.307 324.465 214.085 325.378 214.085C326.291 214.085 327.032 213.307 327.032 212.352C327.032 211.397 326.291 210.619 325.378 210.619C324.465 210.619 323.72 211.397 323.72 212.352Z" fill="#E0E0E0"/>
<path d="M333.531 214.011C333.531 214.095 337.091 214.16 341.479 214.16C345.868 214.16 349.428 214.09 349.428 214.011C349.428 213.931 345.868 213.857 341.479 213.857C337.091 213.857 333.531 213.927 333.531 214.011Z" fill="#263238"/>
<path d="M333.531 212.874C333.531 212.958 337.091 213.023 341.479 213.023C345.868 213.023 349.428 212.953 349.428 212.874C349.428 212.795 345.868 212.72 341.479 212.72C337.091 212.72 333.531 212.79 333.531 212.874Z" fill="#263238"/>
<path d="M333.531 211.737C333.531 211.821 337.091 211.891 341.479 211.891C345.868 211.891 349.428 211.821 349.428 211.737C349.428 211.653 345.868 211.583 341.479 211.583C337.091 211.583 333.531 211.653 333.531 211.737Z" fill="#263238"/>
<path d="M333.531 210.6C333.531 210.684 337.091 210.754 341.479 210.754C345.868 210.754 349.428 210.684 349.428 210.6C349.428 210.516 345.868 210.447 341.479 210.447C337.091 210.447 333.531 210.516 333.531 210.6Z" fill="#263238"/>
<path d="M299.894 214.374H316.242V210.023H299.894V214.374Z" fill="#E8E9EA"/>
<path d="M313.698 213.931C313.787 213.931 313.857 213.153 313.857 212.198C313.857 211.243 313.787 210.465 313.698 210.465C313.61 210.465 313.54 211.243 313.54 212.198C313.54 213.153 313.61 213.931 313.698 213.931Z" fill="#E0E0E0"/>
<path d="M311.536 213.931C311.625 213.931 311.695 213.153 311.695 212.198C311.695 211.243 311.625 210.465 311.536 210.465C311.448 210.465 311.378 211.243 311.378 212.198C311.378 213.153 311.448 213.931 311.536 213.931Z" fill="#E0E0E0"/>
<path d="M309.375 213.931C309.463 213.931 309.533 213.153 309.533 212.198C309.533 211.243 309.463 210.465 309.375 210.465C309.286 210.465 309.216 211.243 309.216 212.198C309.216 213.153 309.286 213.931 309.375 213.931Z" fill="#E0E0E0"/>
<path d="M307.213 213.931C307.301 213.931 307.371 213.153 307.371 212.198C307.371 211.243 307.301 210.465 307.213 210.465C307.124 210.465 307.055 211.243 307.055 212.198C307.055 213.153 307.124 213.931 307.213 213.931Z" fill="#E0E0E0"/>
<path d="M305.051 213.931C305.14 213.931 305.21 213.153 305.21 212.198C305.21 211.243 305.14 210.465 305.051 210.465C304.963 210.465 304.893 211.243 304.893 212.198C304.893 213.153 304.963 213.931 305.051 213.931Z" fill="#E0E0E0"/>
<path d="M302.889 213.931C302.978 213.931 303.048 213.153 303.048 212.198C303.048 211.243 302.978 210.465 302.889 210.465C302.801 210.465 302.731 211.243 302.731 212.198C302.731 213.153 302.801 213.931 302.889 213.931Z" fill="#E0E0E0"/>
<path d="M331.985 216.666C332.073 216.666 332.143 214.733 332.143 212.347C332.143 209.962 332.073 208.029 331.985 208.029C331.896 208.029 331.826 209.962 331.826 212.347C331.826 214.733 331.896 216.666 331.985 216.666Z" fill="#263238"/>
<path d="M329.93 224.088H347.252V217.565H329.93V224.088Z" fill="#EBEBEB"/>
<path d="M293.567 217.808H347.969V216.443H293.567V217.808Z" fill="#FDCD52"/>
<path d="M293.567 225.164H347.718V223.799H293.567V225.164Z" fill="#FDCD52"/>
<path d="M329.93 216.769L329.846 224.903H293.572V216.769H329.93Z" fill="#FDCD52"/>
<path d="M321.111 220.827C321.111 221.945 321.986 222.849 323.072 222.849C324.158 222.849 325.033 221.94 325.033 220.827C325.033 219.713 324.158 218.805 323.072 218.805C321.986 218.805 321.111 219.713 321.111 220.827Z" fill="#263238"/>
<path d="M320.808 220.827C320.808 219.55 321.823 218.511 323.072 218.511C324.321 218.511 325.336 219.55 325.336 220.827C325.336 222.103 324.321 223.142 323.072 223.142C321.823 223.142 320.808 222.103 320.808 220.827ZM321.418 220.827C321.418 221.782 322.163 222.56 323.077 222.56C323.99 222.56 324.735 221.782 324.735 220.827C324.735 219.872 323.99 219.094 323.077 219.094C322.163 219.094 321.418 219.872 321.418 220.827Z" fill="#E0E0E0"/>
<path d="M331.23 222.49C331.23 222.574 334.789 222.644 339.178 222.644C343.567 222.644 347.126 222.574 347.126 222.49C347.126 222.406 343.567 222.341 339.178 222.341C334.789 222.341 331.23 222.411 331.23 222.49Z" fill="#263238"/>
<path d="M331.23 221.353C331.23 221.437 334.789 221.507 339.178 221.507C343.567 221.507 347.126 221.437 347.126 221.353C347.126 221.269 343.567 221.199 339.178 221.199C334.789 221.199 331.23 221.269 331.23 221.353Z" fill="#263238"/>
<path d="M331.23 220.216C331.23 220.3 334.789 220.37 339.178 220.37C343.567 220.37 347.126 220.3 347.126 220.216C347.126 220.133 343.567 220.063 339.178 220.063C334.789 220.063 331.23 220.133 331.23 220.216Z" fill="#263238"/>
<path d="M331.23 219.08C331.23 219.163 334.789 219.233 339.178 219.233C343.567 219.233 347.126 219.163 347.126 219.08C347.126 218.996 343.567 218.926 339.178 218.926C334.789 218.926 331.23 218.996 331.23 219.08Z" fill="#263238"/>
<path d="M297.592 222.853H313.94V218.502H297.592V222.853Z" fill="#E8E9EA"/>
<path d="M311.397 222.411C311.485 222.411 311.555 221.633 311.555 220.678C311.555 219.723 311.485 218.945 311.397 218.945C311.308 218.945 311.238 219.723 311.238 220.678C311.238 221.633 311.308 222.411 311.397 222.411Z" fill="#E0E0E0"/>
<path d="M309.235 222.411C309.323 222.411 309.393 221.633 309.393 220.678C309.393 219.723 309.323 218.945 309.235 218.945C309.146 218.945 309.077 219.723 309.077 220.678C309.077 221.633 309.146 222.411 309.235 222.411Z" fill="#E0E0E0"/>
<path d="M307.073 222.411C307.162 222.411 307.232 221.633 307.232 220.678C307.232 219.723 307.162 218.945 307.073 218.945C306.985 218.945 306.915 219.723 306.915 220.678C306.915 221.633 306.985 222.411 307.073 222.411Z" fill="#E0E0E0"/>
<path d="M304.911 222.411C305 222.411 305.07 221.633 305.07 220.678C305.07 219.723 305 218.945 304.911 218.945C304.823 218.945 304.753 219.723 304.753 220.678C304.753 221.633 304.823 222.411 304.911 222.411Z" fill="#E0E0E0"/>
<path d="M302.75 222.411C302.838 222.411 302.908 221.633 302.908 220.678C302.908 219.723 302.838 218.945 302.75 218.945C302.661 218.945 302.591 219.723 302.591 220.678C302.591 221.633 302.661 222.411 302.75 222.411Z" fill="#E0E0E0"/>
<path d="M300.588 222.411C300.676 222.411 300.746 221.633 300.746 220.678C300.746 219.723 300.676 218.945 300.588 218.945C300.499 218.945 300.43 219.723 300.43 220.678C300.43 221.633 300.499 222.411 300.588 222.411Z" fill="#E0E0E0"/>
<path d="M329.683 225.146C329.772 225.146 329.841 223.212 329.841 220.827C329.841 218.441 329.772 216.508 329.683 216.508C329.594 216.508 329.525 218.441 329.525 220.827C329.525 223.212 329.594 225.146 329.683 225.146Z" fill="#263238"/>
<path d="M297.713 195.277V193.153L344.21 193.246H346.898V195.31H344.21V208.029H293.996V195.277H297.713Z" fill="#EBEBEB"/>
<path d="M346.898 195.31C346.898 195.375 335.898 195.417 322.331 195.398C308.76 195.38 297.76 195.31 297.76 195.244C297.76 195.179 308.76 195.137 322.331 195.156C335.898 195.175 346.898 195.244 346.898 195.31Z" fill="#263238"/>
<path d="M344.21 198.156C344.21 198.222 332.968 198.268 319.103 198.263C305.233 198.254 293.996 198.194 293.996 198.124C293.996 198.054 305.238 198.012 319.107 198.017C332.972 198.026 344.214 198.086 344.214 198.156H344.21Z" fill="#263238"/>
<path d="M344.21 201.054C344.21 201.119 332.968 201.166 319.103 201.161C305.233 201.152 293.996 201.091 293.996 201.022C293.996 200.956 305.238 200.91 319.107 200.914C332.972 200.924 344.214 200.984 344.214 201.054H344.21Z" fill="#263238"/>
<path d="M344.21 203.952C344.21 204.017 332.968 204.064 319.103 204.059C305.233 204.05 293.996 203.989 293.996 203.919C293.996 203.85 305.238 203.808 319.107 203.812C332.972 203.822 344.214 203.882 344.214 203.952H344.21Z" fill="#263238"/>
<path d="M344.21 206.85C344.21 206.915 332.968 206.962 319.103 206.957C305.233 206.948 293.996 206.887 293.996 206.817C293.996 206.747 305.238 206.705 319.107 206.71C332.972 206.719 344.214 206.78 344.214 206.85H344.21Z" fill="#263238"/>
<g opacity="0.3">
<path d="M309.114 208.029V193.153H297.713V195.277H293.996V208.029H309.114Z" fill="black"/>
</g>
<path d="M343.539 140.66L311.979 135.596C310.386 135.34 308.885 136.425 308.629 138.019L303.565 169.574C303.309 171.167 304.394 172.667 305.988 172.923L306.929 173.077L315.711 174.489L337.543 177.992C339.136 178.249 340.636 177.163 340.892 175.57L345.957 144.015C346.213 142.421 345.127 140.921 343.534 140.665L343.539 140.66Z" fill="#E8E9EA"/>
<path d="M344.539 152.911L307.209 146.918L308.689 137.7C308.917 136.283 310.251 135.318 311.668 135.545L343.753 140.696C345.23 140.933 346.238 142.326 346.001 143.803L344.539 152.911Z" fill="#FDCD52"/>
<path d="M322.629 154.302L320.593 166.993L317.658 166.522L319.317 156.189L316.778 155.783L317.155 153.426L322.629 154.306V154.302Z" fill="#263238"/>
<path d="M334.78 156.249L334.472 158.155L328.029 168.185L324.838 167.673L331.039 158.108L326.832 157.433L326.501 159.501L323.892 159.082L324.609 154.623L334.78 156.254V156.249Z" fill="#263238"/>
<path d="M321.474 143.977C321.465 144.043 324.018 144.509 327.181 145.016C330.345 145.524 332.916 145.883 332.93 145.818C332.94 145.753 330.386 145.287 327.218 144.779C324.055 144.271 321.483 143.912 321.469 143.977H321.474Z" fill="#263238"/>
<path d="M343.539 140.66C343.539 140.66 343.669 140.674 343.907 140.735C344.149 140.8 344.503 140.935 344.894 141.233C345.276 141.532 345.696 142.016 345.905 142.71C346.008 143.055 346.054 143.446 346.013 143.861C345.966 144.271 345.887 144.7 345.817 145.156C345.239 148.813 344.401 154.101 343.366 160.629C342.844 163.894 342.276 167.473 341.666 171.311C341.512 172.271 341.358 173.25 341.2 174.242C341.116 174.74 341.051 175.234 340.953 175.747C340.846 176.264 340.59 176.748 340.231 177.144C339.867 177.531 339.402 177.839 338.88 177.992C338.363 178.165 337.79 178.141 337.268 178.044C336.215 177.876 335.148 177.704 334.072 177.531C325.434 176.147 315.944 174.629 305.978 173.031C304.674 172.84 303.593 171.712 303.453 170.422C303.407 170.105 303.435 169.774 303.481 169.462L303.63 168.544C303.728 167.934 303.826 167.323 303.924 166.718C304.315 164.29 304.697 161.9 305.074 159.552C305.829 154.851 306.561 150.323 307.255 146.004C307.604 143.847 307.944 141.741 308.27 139.696C308.354 139.183 308.434 138.676 308.517 138.172C308.555 137.921 308.615 137.66 308.704 137.418C308.806 137.18 308.918 136.943 309.077 136.733C309.375 136.309 309.794 135.983 310.251 135.759C310.712 135.549 311.224 135.452 311.723 135.489C315.58 136.085 319.144 136.682 322.415 137.203C328.942 138.266 334.221 139.123 337.878 139.719C339.7 140.022 341.116 140.255 342.08 140.413C342.556 140.493 342.919 140.558 343.171 140.6C343.418 140.642 343.543 140.67 343.543 140.67C343.543 140.67 343.418 140.656 343.171 140.618C342.919 140.581 342.551 140.525 342.076 140.451C341.107 140.302 339.69 140.078 337.869 139.794C334.211 139.216 328.924 138.377 322.396 137.343C319.135 136.831 315.548 136.239 311.718 135.657C311.248 135.624 310.768 135.717 310.33 135.918C309.901 136.127 309.505 136.435 309.226 136.835C309.077 137.031 308.974 137.255 308.876 137.478C308.792 137.711 308.736 137.944 308.699 138.2C308.62 138.704 308.536 139.211 308.457 139.724C308.131 141.769 307.795 143.875 307.451 146.037C306.761 150.356 306.034 154.889 305.279 159.59C304.902 161.938 304.52 164.332 304.129 166.76C304.031 167.365 303.933 167.976 303.835 168.586C303.756 169.201 303.579 169.811 303.658 170.403C303.789 171.61 304.795 172.658 306.011 172.835C315.976 174.438 325.467 175.966 334.104 177.354C335.185 177.527 336.247 177.699 337.3 177.871C337.822 177.969 338.335 177.988 338.828 177.829C339.318 177.69 339.756 177.401 340.1 177.037C340.436 176.665 340.678 176.213 340.781 175.728C340.878 175.239 340.948 174.726 341.027 174.237C341.186 173.245 341.344 172.271 341.498 171.311C342.118 167.473 342.695 163.894 343.227 160.633C344.289 154.106 345.146 148.827 345.742 145.17C345.812 144.714 345.896 144.28 345.947 143.88C345.994 143.479 345.947 143.092 345.849 142.757C345.654 142.072 345.248 141.597 344.876 141.294C344.494 140.996 344.144 140.851 343.907 140.781C343.79 140.74 343.697 140.73 343.637 140.712C343.576 140.698 343.543 140.688 343.543 140.688L343.539 140.66Z" fill="#263238"/>
<path d="M320.442 140.645L321.42 134.564C321.524 133.916 322.133 133.476 322.781 133.58L322.859 133.592C323.508 133.697 323.948 134.305 323.844 134.954L322.867 141.035C322.762 141.684 322.154 142.124 321.505 142.019L321.422 142.006C320.774 141.902 320.334 141.293 320.438 140.645L320.442 140.645Z" fill="#E0E0E0"/>
<path d="M321.423 142.007C321.437 141.979 321.115 141.974 320.78 141.611C320.621 141.434 320.477 141.15 320.491 140.805C320.528 140.469 320.617 140.055 320.687 139.612C320.84 138.708 321.017 137.651 321.213 136.486C321.311 135.894 321.413 135.279 321.516 134.636C321.553 134.333 321.707 134.063 321.954 133.882C322.201 133.7 322.513 133.635 322.834 133.705C323.142 133.751 323.417 133.942 323.575 134.198C323.743 134.459 323.771 134.757 323.701 135.07C323.598 135.713 323.505 136.328 323.412 136.919C323.235 138.089 323.072 139.151 322.937 140.055C322.904 140.278 322.872 140.488 322.844 140.693C322.811 140.893 322.797 141.089 322.741 141.243C322.625 141.564 322.387 141.774 322.173 141.881C321.721 142.091 321.423 141.969 321.427 142.007C321.427 142.016 321.493 142.035 321.628 142.058C321.763 142.072 321.972 142.072 322.215 141.969C322.452 141.867 322.727 141.653 322.872 141.294C322.946 141.112 322.96 140.917 323.002 140.721C323.039 140.521 323.072 140.306 323.114 140.087C323.268 139.183 323.445 138.126 323.64 136.961C323.738 136.369 323.841 135.754 323.943 135.112C324.018 134.795 323.99 134.385 323.789 134.073C323.598 133.756 323.258 133.527 322.886 133.467C322.531 133.392 322.122 133.467 321.828 133.691C321.53 133.905 321.339 134.259 321.297 134.604C321.194 135.247 321.101 135.862 321.008 136.453C320.831 137.623 320.668 138.685 320.533 139.589C320.472 140.041 320.398 140.427 320.37 140.805C320.37 141.187 320.542 141.494 320.724 141.676C320.91 141.862 321.106 141.942 321.232 141.979C321.362 142.016 321.437 142.011 321.437 142.007H321.423Z" fill="#263238"/>
<path d="M331.834 142.477L332.812 136.396C332.916 135.748 333.524 135.307 334.173 135.412L334.256 135.425C334.904 135.529 335.345 136.138 335.24 136.787L334.263 142.868C334.159 143.516 333.55 143.956 332.902 143.852L332.823 143.84C332.175 143.735 331.735 143.127 331.839 142.478L331.834 142.477Z" fill="#E0E0E0"/>
<path d="M332.823 143.838C332.837 143.805 332.516 143.805 332.18 143.442C332.022 143.265 331.877 142.98 331.891 142.636C331.929 142.3 332.017 141.886 332.087 141.443C332.241 140.539 332.418 139.482 332.613 138.317C332.711 137.725 332.814 137.11 332.916 136.467C332.954 136.164 333.107 135.894 333.354 135.713C333.601 135.531 333.913 135.466 334.235 135.535C334.542 135.582 334.817 135.773 334.976 136.029C335.143 136.29 335.171 136.588 335.101 136.901C334.999 137.543 334.906 138.158 334.812 138.75C334.635 139.92 334.472 140.982 334.337 141.886C334.305 142.109 334.272 142.319 334.244 142.524C334.211 142.724 334.197 142.92 334.142 143.074C334.025 143.395 333.788 143.605 333.573 143.712C333.121 143.922 332.823 143.8 332.828 143.838C332.828 143.847 332.893 143.866 333.028 143.889C333.163 143.903 333.373 143.903 333.615 143.8C333.853 143.698 334.128 143.484 334.272 143.125C334.347 142.943 334.361 142.748 334.402 142.552C334.44 142.352 334.472 142.137 334.514 141.918C334.668 141.014 334.845 139.957 335.041 138.792C335.139 138.2 335.241 137.585 335.344 136.942C335.418 136.626 335.39 136.216 335.19 135.904C334.999 135.587 334.659 135.358 334.286 135.298C333.932 135.223 333.522 135.298 333.228 135.522C332.93 135.736 332.739 136.09 332.697 136.435C332.595 137.073 332.502 137.693 332.408 138.284C332.231 139.454 332.068 140.516 331.933 141.42C331.873 141.872 331.798 142.258 331.77 142.636C331.77 143.018 331.943 143.325 332.124 143.507C332.311 143.693 332.506 143.772 332.632 143.81C332.763 143.847 332.837 143.842 332.837 143.838H332.823Z" fill="#263238"/>
<path d="M280.676 119.015V76.2039C280.676 74.7579 279.504 73.5856 278.058 73.5856H211.975C210.529 73.5856 209.357 74.7579 209.357 76.2039V119.015C209.357 120.461 210.529 121.633 211.975 121.633H278.058C279.504 121.633 280.676 120.461 280.676 119.015Z" fill="#E8E9EA"/>
<path d="M209.24 90.6746H280.774V118.749C280.774 120.413 279.423 121.764 277.759 121.764H211.943C210.452 121.764 209.245 120.552 209.245 119.066V90.6746H209.24Z" fill="#E0E0E0"/>
<path d="M268.81 102.019H280.671V119.392C280.671 120.697 279.609 121.759 278.305 121.759H268.81V102.019Z" fill="#FDCD52"/>
<path d="M257.894 113.21H222.481V121.764H257.894V113.21Z" fill="#F5F5F5"/>
<path d="M242.296 106.002V106.38L240.73 109.879H240.143L241.676 106.482H239.906V107.177H239.374V106.002H242.3H242.296Z" fill="#263238"/>
<path d="M253.892 108.784C253.892 109.487 253.295 109.925 252.345 109.925C251.395 109.925 250.812 109.487 250.812 108.784C250.812 108.341 251.054 108.015 251.492 107.847C251.138 107.68 250.952 107.396 250.952 107.013C250.952 106.366 251.511 105.961 252.35 105.961C253.188 105.961 253.757 106.366 253.757 107.013C253.757 107.396 253.561 107.684 253.207 107.847C253.649 108.02 253.892 108.341 253.892 108.784ZM253.337 108.765C253.337 108.337 252.96 108.071 252.345 108.071C251.73 108.071 251.367 108.337 251.367 108.765C251.367 109.194 251.73 109.473 252.345 109.473C252.96 109.473 253.337 109.203 253.337 108.765ZM251.497 107.032C251.497 107.414 251.814 107.652 252.345 107.652C252.876 107.652 253.207 107.414 253.207 107.032C253.207 106.65 252.862 106.408 252.345 106.408C251.828 106.408 251.497 106.645 251.497 107.032Z" fill="#263238"/>
<path d="M217.077 116.835C217.077 118.158 216.331 118.866 215.246 118.866C214.882 118.866 214.533 118.796 214.281 118.638L214.491 118.204C214.696 118.339 214.957 118.386 215.236 118.386C216.024 118.386 216.522 117.892 216.522 116.923V116.783C216.294 117.119 215.884 117.291 215.404 117.291C214.635 117.291 214.081 116.83 214.081 116.117C214.081 115.404 214.677 114.892 215.451 114.892C216.49 114.892 217.077 115.591 217.077 116.825V116.835ZM216.397 116.098C216.397 115.698 216.075 115.353 215.474 115.353C214.971 115.353 214.621 115.646 214.621 116.108C214.621 116.569 214.957 116.853 215.502 116.853C216.047 116.853 216.401 116.527 216.401 116.098H216.397Z" fill="#263238"/>
<path d="M253.924 98.4457H253.188V99.3961H252.652V98.4457H250.5V98.059L252.48 95.5245H253.076L251.176 97.9704H252.666V97.1272H253.188V97.9704H253.924V98.4457Z" fill="#263238"/>
<path d="M217.025 107.959C217.025 108.63 216.55 109.166 215.558 109.166C215.008 109.166 214.468 108.989 214.137 108.695L214.393 108.257C214.654 108.5 215.087 108.672 215.558 108.672C216.145 108.672 216.476 108.402 216.476 107.978C216.476 107.554 216.201 107.27 215.302 107.27H214.421L214.626 105.243H216.811V105.723H215.087L214.98 106.785H215.414C216.569 106.785 217.025 107.265 217.025 107.955V107.959Z" fill="#263238"/>
<path d="M229.889 107.927C229.889 108.672 229.283 109.152 228.514 109.152C227.476 109.152 226.888 108.453 226.888 107.218C226.888 105.895 227.634 105.187 228.719 105.187C229.083 105.187 229.432 105.257 229.684 105.415L229.474 105.849C229.274 105.718 229.008 105.667 228.733 105.667C227.946 105.667 227.443 106.161 227.443 107.13C227.443 107.172 227.443 107.218 227.448 107.27C227.671 106.939 228.077 106.762 228.561 106.762C229.33 106.762 229.889 107.223 229.889 107.936V107.927ZM229.353 107.95C229.353 107.498 229.008 107.204 228.468 107.204C227.927 107.204 227.578 107.531 227.578 107.959C227.578 108.36 227.899 108.705 228.496 108.705C228.999 108.705 229.353 108.411 229.353 107.95Z" fill="#263238"/>
<path d="M216.22 95.287V99.1632H215.67V95.7668H214.794V95.287H216.215H216.22Z" fill="#263238"/>
<path d="M230.098 98.9349V99.4148H227.312V99.0374L228.892 97.5139C229.302 97.1133 229.381 96.871 229.381 96.6287C229.381 96.2281 229.097 95.9858 228.556 95.9858C228.142 95.9858 227.802 96.1209 227.564 96.4051L227.187 96.079C227.485 95.7063 228.002 95.4919 228.603 95.4919C229.414 95.4919 229.931 95.9066 229.931 96.5728C229.931 96.9502 229.819 97.2856 229.292 97.7888L228.109 98.9302H230.098V98.9349Z" fill="#263238"/>
<path d="M241.802 98.2314C241.802 98.8836 241.322 99.4148 240.334 99.4148C239.78 99.4148 239.239 99.2377 238.913 98.9442L239.169 98.5063C239.43 98.7485 239.864 98.9209 240.339 98.9209C240.921 98.9209 241.252 98.6553 241.252 98.236C241.252 97.8167 240.959 97.5605 240.292 97.5605H239.98V97.1738L240.954 95.9765H239.086V95.4966H241.643V95.874L240.628 97.1272C241.401 97.1971 241.797 97.635 241.797 98.236L241.802 98.2314Z" fill="#263238"/>
<path d="M238.932 117.981C238.932 116.718 239.607 116.001 240.516 116.001C241.424 116.001 242.095 116.723 242.095 117.981C242.095 119.239 241.42 119.965 240.516 119.965C239.612 119.965 238.932 119.243 238.932 117.981ZM241.541 117.981C241.541 116.988 241.122 116.49 240.516 116.49C239.91 116.49 239.486 116.988 239.486 117.981C239.486 118.973 239.906 119.471 240.516 119.471C241.126 119.471 241.541 118.973 241.541 117.981Z" fill="#263238"/>
<path d="M263.694 118.083C263.694 117.971 263.717 117.887 263.787 117.682L264.048 116.914H264.398L264.193 117.738C264.332 117.79 264.426 117.915 264.426 118.083C264.426 118.307 264.267 118.46 264.053 118.46C263.839 118.46 263.694 118.297 263.694 118.083Z" fill="#263238"/>
<path d="M276.632 110.14H272.849V110.536H276.632V110.14Z" fill="#263238"/>
<path d="M276.632 111.337H272.849V111.733H276.632V111.337Z" fill="#263238"/>
<path d="M276.599 97.3089H273.767V97.6071H276.599V97.3089Z" fill="#263238"/>
<path d="M276.744 97.7515H273.622V97.1598H276.744V97.7515Z" fill="#263238"/>
<path d="M275.034 96.0417V98.8743H275.332V96.0417H275.034Z" fill="#263238"/>
<path d="M275.477 99.0187H274.89V95.8972H275.477V99.0187ZM275.178 98.7299H275.183V96.1908L275.178 98.7299Z" fill="#263238"/>
<path d="M264.915 107.246L264.495 106.827L263.601 107.722L262.706 106.827L262.287 107.246L263.182 108.141L262.287 109.035L262.706 109.455L263.601 108.556L264.495 109.455L264.915 109.035L264.016 108.141L264.915 107.246Z" fill="#263238"/>
<path d="M265.222 97.3089H262.39V97.6071H265.222V97.3089Z" fill="#263238"/>
<path d="M265.367 97.7515H262.245V97.1598H265.367V97.7515Z" fill="#263238"/>
<path d="M254.917 79.5024V86.7704H254.386V79.9823H252.611V79.5071H254.917V79.5024Z" fill="#263238"/>
<path d="M261.747 79.5024V79.8752L258.621 86.7657H258.038L261.132 79.9777H257.05V81.3707H256.533V79.5024H261.742H261.747Z" fill="#263238"/>
<path d="M267.361 84.7251C267.361 85.9271 266.489 86.8216 264.817 86.8216C263.75 86.8216 262.762 86.4256 262.255 85.8479L262.525 85.4426C262.972 85.9504 263.82 86.3371 264.817 86.3371C266.126 86.3371 266.82 85.7128 266.82 84.7298C266.82 83.7467 266.154 83.1224 264.705 83.1224H264.249V82.7404L266.396 79.9916H262.525V79.5164H267.081V79.8891L264.901 82.6798C266.55 82.7218 267.361 83.5511 267.361 84.7344V84.7251Z" fill="#263238"/>
<path d="M273.939 84.7764C273.939 86.0436 272.891 86.8216 271.176 86.8216C269.462 86.8216 268.437 86.0436 268.437 84.7764C268.437 83.8632 268.996 83.2296 269.984 82.9687C269.154 82.6985 268.698 82.1301 268.698 81.3288C268.698 80.1687 269.672 79.4512 271.176 79.4512C272.681 79.4512 273.678 80.1687 273.678 81.3288C273.678 82.1301 273.212 82.6985 272.369 82.9687C273.366 83.2296 273.934 83.8725 273.934 84.7764H273.939ZM273.408 84.7764C273.408 83.812 272.579 83.197 271.176 83.197C269.774 83.197 268.963 83.8073 268.963 84.7764C268.963 85.7454 269.774 86.3651 271.176 86.3651C272.579 86.3651 273.408 85.7547 273.408 84.7764ZM271.176 82.7637C272.411 82.7637 273.147 82.214 273.147 81.352C273.147 80.4901 272.378 79.9078 271.176 79.9078C269.974 79.9078 269.224 80.4575 269.224 81.3381C269.224 82.2186 269.942 82.759 271.176 82.759V82.7637Z" fill="#263238"/>
<path d="M214.659 77.1078C214.864 77.965 214.109 78.7197 213.252 78.5148C212.846 78.4169 212.516 78.0861 212.418 77.6808C212.213 76.8236 212.968 76.0688 213.825 76.2738C214.23 76.3716 214.561 76.7024 214.659 77.1078Z" fill="#E0E0E0"/>
<path d="M218.554 77.1078C218.759 77.965 218.004 78.7244 217.147 78.5148C216.741 78.4169 216.411 78.0861 216.313 77.6808C216.108 76.8236 216.862 76.0688 217.72 76.2738C218.125 76.3716 218.456 76.7024 218.554 77.1078Z" fill="#E0E0E0"/>
<path d="M222.127 77.1078C222.332 77.965 221.577 78.7244 220.72 78.5148C220.315 78.4169 219.984 78.0861 219.886 77.6808C219.681 76.8236 220.436 76.0688 221.293 76.2738C221.698 76.3716 222.029 76.7024 222.127 77.1078Z" fill="#E0E0E0"/>
<path d="M209.315 119.075C209.315 119.075 209.32 119.127 209.329 119.234C209.329 119.336 209.352 119.495 209.399 119.695C209.492 120.086 209.72 120.701 210.331 121.191C210.633 121.433 211.025 121.633 211.491 121.698C211.719 121.736 211.966 121.726 212.227 121.726C212.483 121.726 212.753 121.726 213.033 121.726C214.151 121.726 215.441 121.722 216.89 121.717C222.7 121.708 231.1 121.698 241.48 121.684C251.865 121.68 264.225 121.67 277.95 121.661C278.789 121.712 279.637 121.321 280.126 120.585C280.378 120.231 280.522 119.798 280.573 119.355C280.606 118.917 280.583 118.437 280.587 117.976C280.587 116.117 280.587 114.239 280.587 112.339C280.587 108.542 280.587 104.661 280.587 100.715C280.587 92.8177 280.587 84.6412 280.587 76.2691C280.601 75.2535 279.986 74.2797 279.111 73.8931C278.892 73.7999 278.663 73.73 278.426 73.702C278.193 73.6787 277.946 73.6834 277.699 73.6834C277.21 73.6834 276.72 73.6834 276.231 73.6834C274.275 73.6834 272.332 73.6834 270.403 73.6834C266.545 73.6834 262.744 73.6834 259.007 73.6834C251.539 73.6834 244.332 73.6834 237.464 73.6787C230.602 73.6787 224.079 73.6741 217.971 73.6694C216.443 73.6694 214.943 73.6694 213.471 73.6694C213.103 73.6694 212.735 73.6694 212.371 73.6694C212.003 73.6694 211.644 73.6461 211.304 73.7346C210.619 73.8977 210.023 74.3822 209.692 75.0205C209.529 75.3373 209.431 75.6961 209.403 76.0548C209.385 76.4135 209.399 76.7909 209.394 77.1543C209.394 77.8858 209.394 78.6126 209.394 79.33C209.394 80.765 209.394 82.172 209.394 83.5417C209.38 94.5182 209.371 103.398 209.362 109.539C209.352 112.604 209.348 114.99 209.343 116.606C209.343 117.412 209.334 118.027 209.334 118.446C209.334 118.861 209.324 119.071 209.324 119.071C209.324 119.071 209.32 118.856 209.315 118.446C209.315 118.027 209.31 117.412 209.306 116.606C209.306 114.985 209.296 112.604 209.287 109.539C209.278 103.398 209.268 94.5135 209.254 83.5417C209.254 82.1673 209.254 80.765 209.254 79.33C209.254 78.6126 209.254 77.8858 209.254 77.1543C209.254 76.7863 209.245 76.4229 209.264 76.0408C209.292 75.6588 209.394 75.2861 209.571 74.946C209.921 74.2704 210.554 73.7486 211.281 73.5762C211.649 73.4784 212.022 73.511 212.381 73.5064C212.744 73.5064 213.112 73.5064 213.48 73.5064C214.952 73.5064 216.452 73.5064 217.981 73.5064C224.084 73.5064 230.606 73.5017 237.474 73.497C244.336 73.497 251.544 73.497 259.017 73.4924C262.753 73.4924 266.555 73.4924 270.412 73.4924C272.341 73.4924 274.284 73.4924 276.241 73.4924C276.73 73.4924 277.219 73.4924 277.708 73.4924C277.955 73.4924 278.197 73.4877 278.454 73.511C278.705 73.5436 278.957 73.6135 279.19 73.716C280.14 74.1307 280.802 75.1836 280.788 76.2831C280.788 84.6552 280.788 92.8316 280.788 100.729C280.788 104.675 280.788 108.556 280.788 112.353C280.788 114.253 280.788 116.131 280.788 117.99C280.778 118.46 280.802 118.908 280.769 119.388C280.713 119.863 280.555 120.324 280.285 120.706C279.767 121.493 278.836 121.917 277.964 121.857C264.239 121.848 251.874 121.843 241.494 121.834C231.114 121.82 222.714 121.81 216.904 121.801C215.455 121.801 214.165 121.796 213.047 121.792C212.767 121.792 212.497 121.792 212.241 121.792C211.985 121.792 211.733 121.801 211.5 121.759C211.025 121.689 210.629 121.479 210.326 121.233C209.711 120.729 209.487 120.105 209.399 119.709C209.357 119.504 209.343 119.35 209.338 119.243C209.338 119.136 209.338 119.085 209.338 119.085L209.315 119.075Z" fill="#263238"/>
<path d="M222.481 121.857C222.416 121.857 222.36 114.952 222.36 106.431C222.36 97.9099 222.416 91.0054 222.481 91.0054C222.546 91.0054 222.602 97.9099 222.602 106.431C222.602 114.952 222.546 121.857 222.481 121.857Z" fill="#263238"/>
<path d="M234.538 113.21C234.473 113.21 234.417 108.239 234.417 102.108C234.417 95.9765 234.473 91.0054 234.538 91.0054C234.604 91.0054 234.66 95.9765 234.66 102.108C234.66 108.239 234.604 113.21 234.538 113.21Z" fill="#263238"/>
<path d="M246.526 113.21C246.461 113.21 246.405 108.239 246.405 102.108C246.405 95.9765 246.461 91.0054 246.526 91.0054C246.591 91.0054 246.647 95.9765 246.647 102.108C246.647 108.239 246.591 113.21 246.526 113.21Z" fill="#263238"/>
<path d="M257.894 121.843C257.829 121.843 257.773 114.938 257.773 106.426C257.773 97.9146 257.829 91.01 257.894 91.01C257.959 91.01 258.015 97.9099 258.015 106.426C258.015 114.943 257.959 121.843 257.894 121.843Z" fill="#263238"/>
<path d="M268.81 121.843C268.744 121.843 268.689 114.938 268.689 106.426C268.689 97.9146 268.744 91.01 268.81 91.01C268.875 91.01 268.931 97.9099 268.931 106.426C268.931 114.943 268.875 121.843 268.81 121.843Z" fill="#263238"/>
<path d="M209.497 102.205C209.497 102.14 225.393 102.084 245.002 102.084C264.612 102.084 280.508 102.14 280.508 102.205C280.508 102.271 264.612 102.327 245.002 102.327C225.393 102.327 209.497 102.271 209.497 102.205Z" fill="#263238"/>
<path d="M209.497 113.308C209.497 113.242 222.775 113.187 239.151 113.187C255.527 113.187 268.81 113.242 268.81 113.308C268.81 113.373 255.532 113.429 239.151 113.429C222.77 113.429 209.497 113.373 209.497 113.308Z" fill="#263238"/>
<path d="M142.826 18.726H64.2488C62.8902 18.726 61.7888 19.8274 61.7888 21.186V68.9261C61.7888 70.2847 62.8902 71.386 64.2488 71.386H142.826C144.185 71.386 145.286 70.2847 145.286 68.9261V21.186C145.286 19.8274 144.185 18.726 142.826 18.726Z" fill="#E8E9EA"/>
<path d="M142.831 71.6189H64.2487C62.7672 71.6189 61.5559 70.4123 61.5559 68.9307V21.1813C61.5559 19.6997 62.7625 18.4884 64.2487 18.4884H142.831C144.313 18.4884 145.524 19.6951 145.524 21.1813V68.9261C145.524 70.4076 144.317 71.6143 142.831 71.6143V71.6189ZM64.2487 18.959C63.0234 18.959 62.0218 19.956 62.0218 21.1859V68.9307C62.0218 70.156 63.0188 71.153 64.2487 71.153H142.831C144.056 71.153 145.058 70.156 145.058 68.9307V21.1813C145.058 19.956 144.061 18.9543 142.831 18.9543H64.2487V18.959Z" fill="#263238"/>
<path d="M141.005 62.3756H66.4757V30.4712H141.005V62.3756ZM66.6434 62.2219H140.837V30.6203H66.6434V62.2219Z" fill="#EBEBEB"/>
<path d="M140.921 56.9294H66.5595V57.0831H140.921V56.9294Z" fill="#EBEBEB"/>
<path d="M140.921 51.6368H66.5595V51.7905H140.921V51.6368Z" fill="#EBEBEB"/>
<path d="M140.921 46.3489H66.5595V46.5026H140.921V46.3489Z" fill="#EBEBEB"/>
<path d="M140.921 41.0563H66.5595V41.2101H140.921V41.0563Z" fill="#EBEBEB"/>
<path d="M140.921 35.7638H66.5595V35.9175H140.921V35.7638Z" fill="#EBEBEB"/>
<path d="M76.0591 40.7256H73.6086V62.1893H76.0591V40.7256Z" fill="#FDCD52"/>
<path d="M80.5131 35.5355H77.4848V62.1893H80.5131V35.5355Z" fill="#455A64"/>
<path d="M93.204 56.0954H90.7534V62.1846H93.204V56.0954Z" fill="#FDCD52"/>
<path d="M97.0803 43.5582H94.6297V62.1893H97.0803V43.5582Z" fill="#455A64"/>
<path d="M109.198 31.5568H106.748V62.1893H109.198V31.5568Z" fill="#FDCD52"/>
<path d="M113.647 54.8841H111.197V62.1893H113.647V54.8841Z" fill="#455A64"/>
<path d="M125.188 34.6549H122.737V62.1846H125.188V34.6549Z" fill="#FDCD52"/>
<path d="M129.064 46.3629H126.613V62.1893H129.064V46.3629Z" fill="#455A64"/>
<path d="M137.175 60.0508H134.724V62.1893H137.175V60.0508Z" fill="#FDCD52"/>
<path d="M79.0455 64.8262H74.0605C73.8469 64.8262 73.6738 64.9994 73.6738 65.2129V65.4505C73.6738 65.6641 73.8469 65.8372 74.0605 65.8372H79.0455C79.2591 65.8372 79.4322 65.6641 79.4322 65.4505V65.2129C79.4322 64.9994 79.2591 64.8262 79.0455 64.8262Z" fill="#E0E0E0"/>
<path d="M95.7292 64.8262H90.7441C90.5306 64.8262 90.3575 64.9994 90.3575 65.2129V65.4505C90.3575 65.6641 90.5306 65.8372 90.7441 65.8372H95.7292C95.9428 65.8372 96.1159 65.6641 96.1159 65.4505V65.2129C96.1159 64.9994 95.9428 64.8262 95.7292 64.8262Z" fill="#E0E0E0"/>
<path d="M110.461 64.8262H105.476C105.262 64.8262 105.089 64.9994 105.089 65.2129V65.4505C105.089 65.6641 105.262 65.8372 105.476 65.8372H110.461C110.674 65.8372 110.847 65.6641 110.847 65.4505V65.2129C110.847 64.9994 110.674 64.8262 110.461 64.8262Z" fill="#E0E0E0"/>
<path d="M125.635 64.8262H120.65C120.436 64.8262 120.263 64.9994 120.263 65.2129V65.4505C120.263 65.6641 120.436 65.8372 120.65 65.8372H125.635C125.848 65.8372 126.022 65.6641 126.022 65.4505V65.2129C126.022 64.9994 125.848 64.8262 125.635 64.8262Z" fill="#E0E0E0"/>
<path d="M138.494 64.8262H133.509C133.295 64.8262 133.122 64.9994 133.122 65.2129V65.4505C133.122 65.6641 133.295 65.8372 133.509 65.8372H138.494C138.707 65.8372 138.88 65.6641 138.88 65.4505V65.2129C138.88 64.9994 138.707 64.8262 138.494 64.8262Z" fill="#E0E0E0"/>
<path d="M68.7586 24.559C68.7586 25.188 68.2461 25.7005 67.6171 25.7005C66.9882 25.7005 66.4757 25.188 66.4757 24.559C66.4757 23.9301 66.9882 23.4176 67.6171 23.4176C68.2461 23.4176 68.7586 23.9301 68.7586 24.559Z" fill="#E0E0E0"/>
<path d="M71.936 24.559C71.936 25.188 71.4235 25.7005 70.7946 25.7005C70.1656 25.7005 69.6531 25.188 69.6531 24.559C69.6531 23.9301 70.1656 23.4176 70.7946 23.4176C71.4235 23.4176 71.936 23.9301 71.936 24.559Z" fill="#E0E0E0"/>
<path d="M75.1134 24.559C75.1134 25.188 74.6009 25.7005 73.972 25.7005C73.343 25.7005 72.8305 25.188 72.8305 24.559C72.8305 23.9301 73.343 23.4176 73.972 23.4176C74.6009 23.4176 75.1134 23.9301 75.1134 24.559Z" fill="#E0E0E0"/>
</svg>
